G04 #@! TF.FileFunction,Copper,L1,Top,Signal*
%FSLAX46Y46*%
G04 Gerber Fmt 4.6, Leading zero omitted, Abs format (unit mm)*
G04 Created by KiCad (PCBNEW 4.0.6) date 06/02/17 17:39:52*
%MOMM*%
%LPD*%
G01*
G04 APERTURE LIST*
%ADD10C,0.100000*%
%ADD11R,1.600000X1.600000*%
%ADD12C,1.600000*%
%ADD13C,2.300000*%
%ADD14O,1.600000X1.600000*%
%ADD15R,2.400000X1.600000*%
%ADD16O,2.400000X1.600000*%
%ADD17R,1.800000X1.800000*%
%ADD18C,1.800000*%
%ADD19R,1.700000X1.700000*%
%ADD20O,1.700000X1.700000*%
%ADD21C,2.000000*%
%ADD22C,0.685800*%
%ADD23C,0.300000*%
%ADD24C,0.152400*%
G04 APERTURE END LIST*
D10*
D11*
X134112000Y-110744000D03*
D12*
X134112000Y-113244000D03*
D13*
X164696664Y-93889038D03*
X163146664Y-91204359D03*
X146683336Y-104289038D03*
X145133336Y-101604359D03*
D12*
X129540000Y-96520000D03*
D14*
X129540000Y-88900000D03*
D15*
X139700000Y-109220000D03*
D16*
X147320000Y-116840000D03*
X139700000Y-111760000D03*
X147320000Y-114300000D03*
X139700000Y-114300000D03*
X147320000Y-111760000D03*
X139700000Y-116840000D03*
X147320000Y-109220000D03*
D12*
X142240000Y-106680000D03*
X144740000Y-106680000D03*
D17*
X155625800Y-81752440D03*
D18*
X158165800Y-81752440D03*
D17*
X143845280Y-83520280D03*
D18*
X146385280Y-83520280D03*
D17*
X134066280Y-91119960D03*
D18*
X136606280Y-91119960D03*
D17*
X137922000Y-100954840D03*
D18*
X140462000Y-100954840D03*
D12*
X171450000Y-98425000D03*
D14*
X171450000Y-90805000D03*
D12*
X168910000Y-96520000D03*
D14*
X168910000Y-88900000D03*
D12*
X127000000Y-99060000D03*
D14*
X127000000Y-91440000D03*
D19*
X142875000Y-75565000D03*
D20*
X145415000Y-75565000D03*
X147955000Y-75565000D03*
X150495000Y-75565000D03*
X153035000Y-75565000D03*
X155575000Y-75565000D03*
D12*
X137668000Y-84836000D03*
D14*
X137668000Y-77216000D03*
D21*
X134366000Y-101672000D03*
X134366000Y-106172000D03*
X127866000Y-101672000D03*
X127866000Y-106172000D03*
D22*
X135636000Y-108712000D03*
X136398000Y-107950000D03*
D23*
X147955000Y-75565000D02*
X147955000Y-80264000D01*
X147955000Y-80264000D02*
X147828000Y-80264000D01*
X143845280Y-83520280D02*
X143845280Y-81452720D01*
X154137360Y-80264000D02*
X155625800Y-81752440D01*
X145034000Y-80264000D02*
X147828000Y-80264000D01*
X147828000Y-80264000D02*
X154137360Y-80264000D01*
X143845280Y-81452720D02*
X145034000Y-80264000D01*
X134066280Y-91119960D02*
X134066280Y-89199720D01*
X140751560Y-86614000D02*
X143845280Y-83520280D01*
X136652000Y-86614000D02*
X140751560Y-86614000D01*
X134066280Y-89199720D02*
X136652000Y-86614000D01*
X137922000Y-100954840D02*
X137784840Y-100954840D01*
X137784840Y-100954840D02*
X134066280Y-97236280D01*
X134066280Y-97236280D02*
X134066280Y-91119960D01*
X137922000Y-100954840D02*
X137922000Y-101854000D01*
X137922000Y-101854000D02*
X140462000Y-104394000D01*
X142454000Y-104394000D02*
X144740000Y-106680000D01*
X140462000Y-104394000D02*
X142454000Y-104394000D01*
X134366000Y-101672000D02*
X127866000Y-101672000D01*
X134366000Y-101672000D02*
X135818000Y-101672000D01*
X136535160Y-100954840D02*
X137922000Y-100954840D01*
X135818000Y-101672000D02*
X136535160Y-100954840D01*
D24*
X137922000Y-100954840D02*
X137922000Y-100838000D01*
D23*
X137668000Y-84836000D02*
X137668000Y-82042000D01*
X145415000Y-78359000D02*
X145415000Y-75565000D01*
X143256000Y-80518000D02*
X145415000Y-78359000D01*
X139192000Y-80518000D02*
X143256000Y-80518000D01*
X137668000Y-82042000D02*
X139192000Y-80518000D01*
X145133336Y-101604359D02*
X145133336Y-102739038D01*
X145133336Y-102739038D02*
X146683336Y-104289038D01*
X139700000Y-109220000D02*
X142240000Y-106680000D01*
X134112000Y-110744000D02*
X134112000Y-109220000D01*
X136652000Y-106680000D02*
X142240000Y-106680000D01*
X134112000Y-109220000D02*
X136652000Y-106680000D01*
D24*
X164696664Y-93889038D02*
X164696664Y-101368336D01*
X164696664Y-101368336D02*
X158750000Y-107315000D01*
X158750000Y-107315000D02*
X149709298Y-107315000D01*
X149709298Y-107315000D02*
X146683336Y-104289038D01*
X146683336Y-104289038D02*
X145564038Y-104289038D01*
X163146664Y-91204359D02*
X163146664Y-92339038D01*
X163146664Y-92339038D02*
X164696664Y-93889038D01*
X171450000Y-90805000D02*
X171450000Y-89154000D01*
X160487360Y-84074000D02*
X158165800Y-81752440D01*
X161544000Y-84074000D02*
X160487360Y-84074000D01*
X165100000Y-87630000D02*
X161544000Y-84074000D01*
X169926000Y-87630000D02*
X165100000Y-87630000D01*
X171450000Y-89154000D02*
X169926000Y-87630000D01*
X158059120Y-81280000D02*
X158008320Y-81229200D01*
X146385280Y-83520280D02*
X147655280Y-83520280D01*
X165100000Y-88900000D02*
X168910000Y-88900000D01*
X161290000Y-85090000D02*
X165100000Y-88900000D01*
X149225000Y-85090000D02*
X161290000Y-85090000D01*
X147655280Y-83520280D02*
X149225000Y-85090000D01*
X147320000Y-116840000D02*
X154940000Y-116840000D01*
X171450000Y-100330000D02*
X171450000Y-98425000D01*
X154940000Y-116840000D02*
X171450000Y-100330000D01*
X147320000Y-111760000D02*
X158115000Y-111760000D01*
X168910000Y-100965000D02*
X168910000Y-96520000D01*
X158115000Y-111760000D02*
X168910000Y-100965000D01*
X139700000Y-114300000D02*
X135636000Y-110236000D01*
X135636000Y-110236000D02*
X135636000Y-108712000D01*
X139700000Y-111760000D02*
X138430000Y-111760000D01*
X136398000Y-109728000D02*
X136398000Y-107950000D01*
X138430000Y-111760000D02*
X136398000Y-109728000D01*
X127866000Y-106172000D02*
X128016000Y-106172000D01*
X128016000Y-106172000D02*
X132080000Y-110236000D01*
X146050000Y-115570000D02*
X147320000Y-114300000D01*
X133350000Y-115570000D02*
X146050000Y-115570000D01*
X132080000Y-114300000D02*
X133350000Y-115570000D01*
X132080000Y-110236000D02*
X132080000Y-114300000D01*
X127866000Y-106172000D02*
X127866000Y-106784000D01*
X146304000Y-114300000D02*
X147320000Y-114300000D01*
X127866000Y-106172000D02*
X134366000Y-106172000D01*
X137668000Y-77216000D02*
X141224000Y-77216000D01*
X141224000Y-77216000D02*
X142875000Y-75565000D01*
M02*
