G04 #@! TF.FileFunction,Legend,Top*
%FSLAX46Y46*%
G04 Gerber Fmt 4.6, Leading zero omitted, Abs format (unit mm)*
G04 Created by KiCad (PCBNEW 4.0.6) date 07/01/17 22:44:06*
%MOMM*%
%LPD*%
G01*
G04 APERTURE LIST*
%ADD10C,0.100000*%
%ADD11C,0.200000*%
%ADD12C,0.300000*%
%ADD13C,1.250000*%
%ADD14C,0.120000*%
%ADD15C,0.010000*%
%ADD16C,0.150000*%
G04 APERTURE END LIST*
D10*
D11*
X143256000Y-77724000D02*
X142748000Y-77216000D01*
X142240000Y-77724000D02*
X143256000Y-77724000D01*
X142748000Y-77216000D02*
X142240000Y-77724000D01*
D12*
X168037144Y-101024571D02*
X168394287Y-102024571D01*
X168751429Y-101024571D01*
X169608572Y-100524571D02*
X169751429Y-100524571D01*
X169894286Y-100596000D01*
X169965715Y-100667429D01*
X170037144Y-100810286D01*
X170108572Y-101096000D01*
X170108572Y-101453143D01*
X170037144Y-101738857D01*
X169965715Y-101881714D01*
X169894286Y-101953143D01*
X169751429Y-102024571D01*
X169608572Y-102024571D01*
X169465715Y-101953143D01*
X169394286Y-101881714D01*
X169322858Y-101738857D01*
X169251429Y-101453143D01*
X169251429Y-101096000D01*
X169322858Y-100810286D01*
X169394286Y-100667429D01*
X169465715Y-100596000D01*
X169608572Y-100524571D01*
X170751429Y-101881714D02*
X170822857Y-101953143D01*
X170751429Y-102024571D01*
X170680000Y-101953143D01*
X170751429Y-101881714D01*
X170751429Y-102024571D01*
X171322858Y-100524571D02*
X172251429Y-100524571D01*
X171751429Y-101096000D01*
X171965715Y-101096000D01*
X172108572Y-101167429D01*
X172180001Y-101238857D01*
X172251429Y-101381714D01*
X172251429Y-101738857D01*
X172180001Y-101881714D01*
X172108572Y-101953143D01*
X171965715Y-102024571D01*
X171537143Y-102024571D01*
X171394286Y-101953143D01*
X171322858Y-101881714D01*
X146529047Y-98129624D02*
X146338571Y-98224862D01*
X145957619Y-98224862D01*
X145767143Y-98129624D01*
X145671904Y-98034386D01*
X145576666Y-97843910D01*
X145576666Y-97272481D01*
X145671904Y-97082005D01*
X145767143Y-96986767D01*
X145957619Y-96891529D01*
X146338571Y-96891529D01*
X146529047Y-96986767D01*
X147671905Y-98224862D02*
X147481429Y-98129624D01*
X147386190Y-98034386D01*
X147290952Y-97843910D01*
X147290952Y-97272481D01*
X147386190Y-97082005D01*
X147481429Y-96986767D01*
X147671905Y-96891529D01*
X147957619Y-96891529D01*
X148148095Y-96986767D01*
X148243333Y-97082005D01*
X148338571Y-97272481D01*
X148338571Y-97843910D01*
X148243333Y-98034386D01*
X148148095Y-98129624D01*
X147957619Y-98224862D01*
X147671905Y-98224862D01*
X149481429Y-98224862D02*
X149290953Y-98129624D01*
X149195714Y-97939148D01*
X149195714Y-96224862D01*
X150529048Y-98224862D02*
X150338572Y-98129624D01*
X150243333Y-97939148D01*
X150243333Y-96224862D01*
X152148095Y-98224862D02*
X152148095Y-97177243D01*
X152052857Y-96986767D01*
X151862381Y-96891529D01*
X151481429Y-96891529D01*
X151290952Y-96986767D01*
X152148095Y-98129624D02*
X151957619Y-98224862D01*
X151481429Y-98224862D01*
X151290952Y-98129624D01*
X151195714Y-97939148D01*
X151195714Y-97748671D01*
X151290952Y-97558195D01*
X151481429Y-97462957D01*
X151957619Y-97462957D01*
X152148095Y-97367719D01*
X153100476Y-98224862D02*
X153100476Y-96224862D01*
X153100476Y-96986767D02*
X153290953Y-96891529D01*
X153671905Y-96891529D01*
X153862381Y-96986767D01*
X153957619Y-97082005D01*
X154052857Y-97272481D01*
X154052857Y-97843910D01*
X153957619Y-98034386D01*
X153862381Y-98129624D01*
X153671905Y-98224862D01*
X153290953Y-98224862D01*
X153100476Y-98129624D01*
X155195715Y-98224862D02*
X155005239Y-98129624D01*
X154910000Y-98034386D01*
X154814762Y-97843910D01*
X154814762Y-97272481D01*
X154910000Y-97082005D01*
X155005239Y-96986767D01*
X155195715Y-96891529D01*
X155481429Y-96891529D01*
X155671905Y-96986767D01*
X155767143Y-97082005D01*
X155862381Y-97272481D01*
X155862381Y-97843910D01*
X155767143Y-98034386D01*
X155671905Y-98129624D01*
X155481429Y-98224862D01*
X155195715Y-98224862D01*
X156719524Y-98224862D02*
X156719524Y-96891529D01*
X156719524Y-97272481D02*
X156814763Y-97082005D01*
X156910001Y-96986767D01*
X157100477Y-96891529D01*
X157290953Y-96891529D01*
X158814762Y-98224862D02*
X158814762Y-97177243D01*
X158719524Y-96986767D01*
X158529048Y-96891529D01*
X158148096Y-96891529D01*
X157957619Y-96986767D01*
X158814762Y-98129624D02*
X158624286Y-98224862D01*
X158148096Y-98224862D01*
X157957619Y-98129624D01*
X157862381Y-97939148D01*
X157862381Y-97748671D01*
X157957619Y-97558195D01*
X158148096Y-97462957D01*
X158624286Y-97462957D01*
X158814762Y-97367719D01*
X159481429Y-96891529D02*
X160243334Y-96891529D01*
X159767143Y-96224862D02*
X159767143Y-97939148D01*
X159862382Y-98129624D01*
X160052858Y-98224862D01*
X160243334Y-98224862D01*
X160910000Y-98224862D02*
X160910000Y-96891529D01*
X160910000Y-96224862D02*
X160814762Y-96320100D01*
X160910000Y-96415338D01*
X161005239Y-96320100D01*
X160910000Y-96224862D01*
X160910000Y-96415338D01*
X161671905Y-96891529D02*
X162148096Y-98224862D01*
X162624286Y-96891529D01*
X164148096Y-98129624D02*
X163957620Y-98224862D01*
X163576668Y-98224862D01*
X163386191Y-98129624D01*
X163290953Y-97939148D01*
X163290953Y-97177243D01*
X163386191Y-96986767D01*
X163576668Y-96891529D01*
X163957620Y-96891529D01*
X164148096Y-96986767D01*
X164243334Y-97177243D01*
X164243334Y-97367719D01*
X163290953Y-97558195D01*
X147671904Y-88439524D02*
X147957619Y-88534762D01*
X148433809Y-88534762D01*
X148624285Y-88439524D01*
X148719523Y-88344286D01*
X148814762Y-88153810D01*
X148814762Y-87963333D01*
X148719523Y-87772857D01*
X148624285Y-87677619D01*
X148433809Y-87582381D01*
X148052857Y-87487143D01*
X147862381Y-87391905D01*
X147767142Y-87296667D01*
X147671904Y-87106190D01*
X147671904Y-86915714D01*
X147767142Y-86725238D01*
X147862381Y-86630000D01*
X148052857Y-86534762D01*
X148529047Y-86534762D01*
X148814762Y-86630000D01*
X149386190Y-86534762D02*
X150529047Y-86534762D01*
X149957619Y-88534762D02*
X149957619Y-86534762D01*
X151576667Y-86534762D02*
X151957619Y-86534762D01*
X152148095Y-86630000D01*
X152338572Y-86820476D01*
X152433810Y-87201429D01*
X152433810Y-87868095D01*
X152338572Y-88249048D01*
X152148095Y-88439524D01*
X151957619Y-88534762D01*
X151576667Y-88534762D01*
X151386191Y-88439524D01*
X151195714Y-88249048D01*
X151100476Y-87868095D01*
X151100476Y-87201429D01*
X151195714Y-86820476D01*
X151386191Y-86630000D01*
X151576667Y-86534762D01*
X154433810Y-88344286D02*
X154338572Y-88439524D01*
X154052857Y-88534762D01*
X153862381Y-88534762D01*
X153576667Y-88439524D01*
X153386191Y-88249048D01*
X153290952Y-88058571D01*
X153195714Y-87677619D01*
X153195714Y-87391905D01*
X153290952Y-87010952D01*
X153386191Y-86820476D01*
X153576667Y-86630000D01*
X153862381Y-86534762D01*
X154052857Y-86534762D01*
X154338572Y-86630000D01*
X154433810Y-86725238D01*
X155290952Y-88534762D02*
X155290952Y-86534762D01*
X156433810Y-88534762D02*
X155576667Y-87391905D01*
X156433810Y-86534762D02*
X155290952Y-87677619D01*
X157005238Y-86534762D02*
X158148095Y-86534762D01*
X157576667Y-88534762D02*
X157576667Y-86534762D01*
X159195715Y-86534762D02*
X159576667Y-86534762D01*
X159767143Y-86630000D01*
X159957620Y-86820476D01*
X160052858Y-87201429D01*
X160052858Y-87868095D01*
X159957620Y-88249048D01*
X159767143Y-88439524D01*
X159576667Y-88534762D01*
X159195715Y-88534762D01*
X159005239Y-88439524D01*
X158814762Y-88249048D01*
X158719524Y-87868095D01*
X158719524Y-87201429D01*
X158814762Y-86820476D01*
X159005239Y-86630000D01*
X159195715Y-86534762D01*
X160910000Y-88534762D02*
X160910000Y-86534762D01*
X162052858Y-88534762D01*
X162052858Y-86534762D01*
D13*
X146204643Y-94733810D02*
X146889167Y-94971905D01*
X148079643Y-94971905D01*
X148585595Y-94733810D01*
X148853453Y-94495714D01*
X149151072Y-94019524D01*
X149210595Y-93543333D01*
X149032024Y-93067143D01*
X148823690Y-92829048D01*
X148377262Y-92590952D01*
X147454643Y-92352857D01*
X147008214Y-92114762D01*
X146799881Y-91876667D01*
X146621310Y-91400476D01*
X146680833Y-90924286D01*
X146978452Y-90448095D01*
X147246309Y-90210000D01*
X147752262Y-89971905D01*
X148942738Y-89971905D01*
X149627262Y-90210000D01*
X151085595Y-89971905D02*
X153942738Y-89971905D01*
X151889167Y-94971905D02*
X152514167Y-89971905D01*
X155311786Y-92352857D02*
X156978453Y-92352857D01*
X157365358Y-94971905D02*
X154984405Y-94971905D01*
X155609405Y-89971905D01*
X157990358Y-89971905D01*
X159508215Y-94971905D02*
X160133215Y-89971905D01*
X161353453Y-93543333D01*
X163466549Y-89971905D01*
X162841549Y-94971905D01*
D14*
X136662000Y-111994000D02*
X131562000Y-111994000D01*
X136662000Y-112034000D02*
X131562000Y-112034000D01*
X136661000Y-112074000D02*
X131563000Y-112074000D01*
X136660000Y-112114000D02*
X131564000Y-112114000D01*
X136658000Y-112154000D02*
X131566000Y-112154000D01*
X136655000Y-112194000D02*
X131569000Y-112194000D01*
X136651000Y-112234000D02*
X131573000Y-112234000D01*
X136647000Y-112274000D02*
X135092000Y-112274000D01*
X133132000Y-112274000D02*
X131577000Y-112274000D01*
X136643000Y-112314000D02*
X135092000Y-112314000D01*
X133132000Y-112314000D02*
X131581000Y-112314000D01*
X136637000Y-112354000D02*
X135092000Y-112354000D01*
X133132000Y-112354000D02*
X131587000Y-112354000D01*
X136631000Y-112394000D02*
X135092000Y-112394000D01*
X133132000Y-112394000D02*
X131593000Y-112394000D01*
X136625000Y-112434000D02*
X135092000Y-112434000D01*
X133132000Y-112434000D02*
X131599000Y-112434000D01*
X136618000Y-112474000D02*
X135092000Y-112474000D01*
X133132000Y-112474000D02*
X131606000Y-112474000D01*
X136610000Y-112514000D02*
X135092000Y-112514000D01*
X133132000Y-112514000D02*
X131614000Y-112514000D01*
X136601000Y-112554000D02*
X135092000Y-112554000D01*
X133132000Y-112554000D02*
X131623000Y-112554000D01*
X136592000Y-112594000D02*
X135092000Y-112594000D01*
X133132000Y-112594000D02*
X131632000Y-112594000D01*
X136582000Y-112634000D02*
X135092000Y-112634000D01*
X133132000Y-112634000D02*
X131642000Y-112634000D01*
X136572000Y-112674000D02*
X135092000Y-112674000D01*
X133132000Y-112674000D02*
X131652000Y-112674000D01*
X136560000Y-112715000D02*
X135092000Y-112715000D01*
X133132000Y-112715000D02*
X131664000Y-112715000D01*
X136548000Y-112755000D02*
X135092000Y-112755000D01*
X133132000Y-112755000D02*
X131676000Y-112755000D01*
X136536000Y-112795000D02*
X135092000Y-112795000D01*
X133132000Y-112795000D02*
X131688000Y-112795000D01*
X136522000Y-112835000D02*
X135092000Y-112835000D01*
X133132000Y-112835000D02*
X131702000Y-112835000D01*
X136508000Y-112875000D02*
X135092000Y-112875000D01*
X133132000Y-112875000D02*
X131716000Y-112875000D01*
X136494000Y-112915000D02*
X135092000Y-112915000D01*
X133132000Y-112915000D02*
X131730000Y-112915000D01*
X136478000Y-112955000D02*
X135092000Y-112955000D01*
X133132000Y-112955000D02*
X131746000Y-112955000D01*
X136462000Y-112995000D02*
X135092000Y-112995000D01*
X133132000Y-112995000D02*
X131762000Y-112995000D01*
X136445000Y-113035000D02*
X135092000Y-113035000D01*
X133132000Y-113035000D02*
X131779000Y-113035000D01*
X136427000Y-113075000D02*
X135092000Y-113075000D01*
X133132000Y-113075000D02*
X131797000Y-113075000D01*
X136408000Y-113115000D02*
X135092000Y-113115000D01*
X133132000Y-113115000D02*
X131816000Y-113115000D01*
X136388000Y-113155000D02*
X135092000Y-113155000D01*
X133132000Y-113155000D02*
X131836000Y-113155000D01*
X136368000Y-113195000D02*
X135092000Y-113195000D01*
X133132000Y-113195000D02*
X131856000Y-113195000D01*
X136346000Y-113235000D02*
X135092000Y-113235000D01*
X133132000Y-113235000D02*
X131878000Y-113235000D01*
X136324000Y-113275000D02*
X135092000Y-113275000D01*
X133132000Y-113275000D02*
X131900000Y-113275000D01*
X136301000Y-113315000D02*
X135092000Y-113315000D01*
X133132000Y-113315000D02*
X131923000Y-113315000D01*
X136277000Y-113355000D02*
X135092000Y-113355000D01*
X133132000Y-113355000D02*
X131947000Y-113355000D01*
X136252000Y-113395000D02*
X135092000Y-113395000D01*
X133132000Y-113395000D02*
X131972000Y-113395000D01*
X136225000Y-113435000D02*
X135092000Y-113435000D01*
X133132000Y-113435000D02*
X131999000Y-113435000D01*
X136198000Y-113475000D02*
X135092000Y-113475000D01*
X133132000Y-113475000D02*
X132026000Y-113475000D01*
X136170000Y-113515000D02*
X135092000Y-113515000D01*
X133132000Y-113515000D02*
X132054000Y-113515000D01*
X136140000Y-113555000D02*
X135092000Y-113555000D01*
X133132000Y-113555000D02*
X132084000Y-113555000D01*
X136109000Y-113595000D02*
X135092000Y-113595000D01*
X133132000Y-113595000D02*
X132115000Y-113595000D01*
X136077000Y-113635000D02*
X135092000Y-113635000D01*
X133132000Y-113635000D02*
X132147000Y-113635000D01*
X136044000Y-113675000D02*
X135092000Y-113675000D01*
X133132000Y-113675000D02*
X132180000Y-113675000D01*
X136009000Y-113715000D02*
X135092000Y-113715000D01*
X133132000Y-113715000D02*
X132215000Y-113715000D01*
X135973000Y-113755000D02*
X135092000Y-113755000D01*
X133132000Y-113755000D02*
X132251000Y-113755000D01*
X135935000Y-113795000D02*
X135092000Y-113795000D01*
X133132000Y-113795000D02*
X132289000Y-113795000D01*
X135895000Y-113835000D02*
X135092000Y-113835000D01*
X133132000Y-113835000D02*
X132329000Y-113835000D01*
X135854000Y-113875000D02*
X135092000Y-113875000D01*
X133132000Y-113875000D02*
X132370000Y-113875000D01*
X135811000Y-113915000D02*
X135092000Y-113915000D01*
X133132000Y-113915000D02*
X132413000Y-113915000D01*
X135766000Y-113955000D02*
X135092000Y-113955000D01*
X133132000Y-113955000D02*
X132458000Y-113955000D01*
X135718000Y-113995000D02*
X135092000Y-113995000D01*
X133132000Y-113995000D02*
X132506000Y-113995000D01*
X135668000Y-114035000D02*
X135092000Y-114035000D01*
X133132000Y-114035000D02*
X132556000Y-114035000D01*
X135616000Y-114075000D02*
X135092000Y-114075000D01*
X133132000Y-114075000D02*
X132608000Y-114075000D01*
X135560000Y-114115000D02*
X135092000Y-114115000D01*
X133132000Y-114115000D02*
X132664000Y-114115000D01*
X135502000Y-114155000D02*
X135092000Y-114155000D01*
X133132000Y-114155000D02*
X132722000Y-114155000D01*
X135439000Y-114195000D02*
X135092000Y-114195000D01*
X133132000Y-114195000D02*
X132785000Y-114195000D01*
X135373000Y-114235000D02*
X132851000Y-114235000D01*
X135301000Y-114275000D02*
X132923000Y-114275000D01*
X135224000Y-114315000D02*
X133000000Y-114315000D01*
X135140000Y-114355000D02*
X133084000Y-114355000D01*
X135046000Y-114395000D02*
X133178000Y-114395000D01*
X134941000Y-114435000D02*
X133283000Y-114435000D01*
X134819000Y-114475000D02*
X133405000Y-114475000D01*
X134671000Y-114515000D02*
X133553000Y-114515000D01*
X134466000Y-114555000D02*
X133758000Y-114555000D01*
X134112000Y-108544000D02*
X134112000Y-109744000D01*
X134762000Y-109144000D02*
X133462000Y-109144000D01*
X135093400Y-114390863D02*
G75*
G03X135092000Y-109596564I-981400J2396863D01*
G01*
X133130600Y-114390863D02*
G75*
G02X133132000Y-109596564I981400J2396863D01*
G01*
X133130600Y-114390863D02*
G75*
G03X135092000Y-114391436I981400J2396863D01*
G01*
X128560000Y-95920000D02*
X128230000Y-95920000D01*
X128230000Y-95920000D02*
X128230000Y-89500000D01*
X128230000Y-89500000D02*
X128560000Y-89500000D01*
X130520000Y-95920000D02*
X130850000Y-95920000D01*
X130850000Y-95920000D02*
X130850000Y-89500000D01*
X130850000Y-89500000D02*
X130520000Y-89500000D01*
X142510000Y-107830000D02*
X141140000Y-107830000D01*
X141140000Y-107830000D02*
X141140000Y-118230000D01*
X141140000Y-118230000D02*
X145880000Y-118230000D01*
X145880000Y-118230000D02*
X145880000Y-107830000D01*
X145880000Y-107830000D02*
X144510000Y-107830000D01*
X138310000Y-107830000D02*
X138310000Y-118230000D01*
X138310000Y-118230000D02*
X148710000Y-118230000D01*
X148710000Y-118230000D02*
X148710000Y-107830000D01*
X148710000Y-107830000D02*
X138310000Y-107830000D01*
X144510000Y-107830000D02*
G75*
G02X142510000Y-107830000I-1000000J0D01*
G01*
X140930000Y-105370000D02*
X146050000Y-105370000D01*
X140930000Y-107990000D02*
X146050000Y-107990000D01*
X140930000Y-105370000D02*
X140930000Y-107990000D01*
X146050000Y-105370000D02*
X146050000Y-107990000D01*
X159885800Y-81752902D02*
G75*
G03X154335800Y-80207610I-2990000J462D01*
G01*
X159885800Y-81751978D02*
G75*
G02X154335800Y-83297270I-2990000J-462D01*
G01*
X159395800Y-81752440D02*
G75*
G03X159395800Y-81752440I-2500000J0D01*
G01*
X154335800Y-80207440D02*
X154335800Y-83297440D01*
X148105280Y-83520742D02*
G75*
G03X142555280Y-81975450I-2990000J462D01*
G01*
X148105280Y-83519818D02*
G75*
G02X142555280Y-85065110I-2990000J-462D01*
G01*
X147615280Y-83520280D02*
G75*
G03X147615280Y-83520280I-2500000J0D01*
G01*
X142555280Y-81975280D02*
X142555280Y-85065280D01*
X138326280Y-91120422D02*
G75*
G03X132776280Y-89575130I-2990000J462D01*
G01*
X138326280Y-91119498D02*
G75*
G02X132776280Y-92664790I-2990000J-462D01*
G01*
X137836280Y-91119960D02*
G75*
G03X137836280Y-91119960I-2500000J0D01*
G01*
X132776280Y-89574960D02*
X132776280Y-92664960D01*
X142182000Y-100955302D02*
G75*
G03X136632000Y-99410010I-2990000J462D01*
G01*
X142182000Y-100954378D02*
G75*
G02X136632000Y-102499670I-2990000J-462D01*
G01*
X141692000Y-100954840D02*
G75*
G03X141692000Y-100954840I-2500000J0D01*
G01*
X136632000Y-99409840D02*
X136632000Y-102499840D01*
X170470000Y-97825000D02*
X170140000Y-97825000D01*
X170140000Y-97825000D02*
X170140000Y-91405000D01*
X170140000Y-91405000D02*
X170470000Y-91405000D01*
X172430000Y-97825000D02*
X172760000Y-97825000D01*
X172760000Y-97825000D02*
X172760000Y-91405000D01*
X172760000Y-91405000D02*
X172430000Y-91405000D01*
X167930000Y-95920000D02*
X167600000Y-95920000D01*
X167600000Y-95920000D02*
X167600000Y-89500000D01*
X167600000Y-89500000D02*
X167930000Y-89500000D01*
X169890000Y-95920000D02*
X170220000Y-95920000D01*
X170220000Y-95920000D02*
X170220000Y-89500000D01*
X170220000Y-89500000D02*
X169890000Y-89500000D01*
X126020000Y-98460000D02*
X125690000Y-98460000D01*
X125690000Y-98460000D02*
X125690000Y-92040000D01*
X125690000Y-92040000D02*
X126020000Y-92040000D01*
X127980000Y-98460000D02*
X128310000Y-98460000D01*
X128310000Y-98460000D02*
X128310000Y-92040000D01*
X128310000Y-92040000D02*
X127980000Y-92040000D01*
X144145000Y-76895000D02*
X156905000Y-76895000D01*
X156905000Y-76895000D02*
X156905000Y-74235000D01*
X156905000Y-74235000D02*
X144145000Y-74235000D01*
X144145000Y-74235000D02*
X144145000Y-76895000D01*
X142875000Y-76895000D02*
X141545000Y-76895000D01*
X141545000Y-76895000D02*
X141545000Y-75565000D01*
X136688000Y-84236000D02*
X136358000Y-84236000D01*
X136358000Y-84236000D02*
X136358000Y-77816000D01*
X136358000Y-77816000D02*
X136688000Y-77816000D01*
X138648000Y-84236000D02*
X138978000Y-84236000D01*
X138978000Y-84236000D02*
X138978000Y-77816000D01*
X138978000Y-77816000D02*
X138648000Y-77816000D01*
D15*
G36*
X133409784Y-93258301D02*
X133438187Y-93285020D01*
X133544092Y-93498556D01*
X133547020Y-93879377D01*
X133446899Y-94509920D01*
X133437108Y-94560066D01*
X133318439Y-95752161D01*
X133478126Y-96815383D01*
X133786790Y-97587979D01*
X134311798Y-98339561D01*
X135044506Y-99017684D01*
X135844349Y-99492616D01*
X135855480Y-99497257D01*
X136233183Y-99693896D01*
X136416008Y-99868019D01*
X136419167Y-99885733D01*
X136279601Y-100031828D01*
X135906098Y-100010087D01*
X135366450Y-99835462D01*
X134728450Y-99522906D01*
X134699603Y-99506462D01*
X133747570Y-98772415D01*
X133074823Y-97836626D01*
X132692858Y-96727011D01*
X132613173Y-95471487D01*
X132711480Y-94679518D01*
X132885193Y-93874037D01*
X133048710Y-93389344D01*
X133218188Y-93194434D01*
X133409784Y-93258301D01*
X133409784Y-93258301D01*
G37*
X133409784Y-93258301D02*
X133438187Y-93285020D01*
X133544092Y-93498556D01*
X133547020Y-93879377D01*
X133446899Y-94509920D01*
X133437108Y-94560066D01*
X133318439Y-95752161D01*
X133478126Y-96815383D01*
X133786790Y-97587979D01*
X134311798Y-98339561D01*
X135044506Y-99017684D01*
X135844349Y-99492616D01*
X135855480Y-99497257D01*
X136233183Y-99693896D01*
X136416008Y-99868019D01*
X136419167Y-99885733D01*
X136279601Y-100031828D01*
X135906098Y-100010087D01*
X135366450Y-99835462D01*
X134728450Y-99522906D01*
X134699603Y-99506462D01*
X133747570Y-98772415D01*
X133074823Y-97836626D01*
X132692858Y-96727011D01*
X132613173Y-95471487D01*
X132711480Y-94679518D01*
X132885193Y-93874037D01*
X133048710Y-93389344D01*
X133218188Y-93194434D01*
X133409784Y-93258301D01*
G36*
X142255413Y-84595518D02*
X142081907Y-84823035D01*
X141603006Y-85195752D01*
X140961181Y-85621999D01*
X140195823Y-86140469D01*
X139334029Y-86773389D01*
X138541049Y-87398622D01*
X138413694Y-87504869D01*
X137790810Y-88027179D01*
X137382318Y-88352414D01*
X137133919Y-88512104D01*
X136991319Y-88537776D01*
X136900220Y-88460958D01*
X136863739Y-88404880D01*
X136946576Y-88224684D01*
X137271104Y-87891841D01*
X137783405Y-87446233D01*
X138429560Y-86927743D01*
X139155649Y-86376252D01*
X139907755Y-85831641D01*
X140631960Y-85333793D01*
X141274343Y-84922589D01*
X141780988Y-84637911D01*
X142097974Y-84519641D01*
X142117969Y-84518500D01*
X142255413Y-84595518D01*
X142255413Y-84595518D01*
G37*
X142255413Y-84595518D02*
X142081907Y-84823035D01*
X141603006Y-85195752D01*
X140961181Y-85621999D01*
X140195823Y-86140469D01*
X139334029Y-86773389D01*
X138541049Y-87398622D01*
X138413694Y-87504869D01*
X137790810Y-88027179D01*
X137382318Y-88352414D01*
X137133919Y-88512104D01*
X136991319Y-88537776D01*
X136900220Y-88460958D01*
X136863739Y-88404880D01*
X136946576Y-88224684D01*
X137271104Y-87891841D01*
X137783405Y-87446233D01*
X138429560Y-86927743D01*
X139155649Y-86376252D01*
X139907755Y-85831641D01*
X140631960Y-85333793D01*
X141274343Y-84922589D01*
X141780988Y-84637911D01*
X142097974Y-84519641D01*
X142117969Y-84518500D01*
X142255413Y-84595518D01*
G36*
X160225331Y-82706183D02*
X160502869Y-83007658D01*
X160770097Y-83359043D01*
X160926767Y-83636730D01*
X160937222Y-83687310D01*
X160791779Y-83794182D01*
X160592526Y-83861940D01*
X160224724Y-83800671D01*
X159961762Y-83515484D01*
X159786214Y-83095442D01*
X159802119Y-82746718D01*
X160000456Y-82580604D01*
X160037731Y-82578222D01*
X160225331Y-82706183D01*
X160225331Y-82706183D01*
G37*
X160225331Y-82706183D02*
X160502869Y-83007658D01*
X160770097Y-83359043D01*
X160926767Y-83636730D01*
X160937222Y-83687310D01*
X160791779Y-83794182D01*
X160592526Y-83861940D01*
X160224724Y-83800671D01*
X159961762Y-83515484D01*
X159786214Y-83095442D01*
X159802119Y-82746718D01*
X160000456Y-82580604D01*
X160037731Y-82578222D01*
X160225331Y-82706183D01*
G36*
X154048151Y-80946161D02*
X154058056Y-80967277D01*
X153894746Y-81042819D01*
X153453625Y-81139424D01*
X152807903Y-81243019D01*
X152250070Y-81314889D01*
X151357557Y-81434093D01*
X150475882Y-81577066D01*
X149741213Y-81720737D01*
X149471945Y-81785523D01*
X148858103Y-81932282D01*
X148394990Y-82012217D01*
X148126201Y-82025895D01*
X148095333Y-81973880D01*
X148345981Y-81856738D01*
X148590000Y-81774079D01*
X149251477Y-81591873D01*
X150052753Y-81412406D01*
X150926900Y-81245555D01*
X151806987Y-81101194D01*
X152626086Y-80989198D01*
X153317265Y-80919444D01*
X153813597Y-80901807D01*
X154048151Y-80946161D01*
X154048151Y-80946161D01*
G37*
X154048151Y-80946161D02*
X154058056Y-80967277D01*
X153894746Y-81042819D01*
X153453625Y-81139424D01*
X152807903Y-81243019D01*
X152250070Y-81314889D01*
X151357557Y-81434093D01*
X150475882Y-81577066D01*
X149741213Y-81720737D01*
X149471945Y-81785523D01*
X148858103Y-81932282D01*
X148394990Y-82012217D01*
X148126201Y-82025895D01*
X148095333Y-81973880D01*
X148345981Y-81856738D01*
X148590000Y-81774079D01*
X149251477Y-81591873D01*
X150052753Y-81412406D01*
X150926900Y-81245555D01*
X151806987Y-81101194D01*
X152626086Y-80989198D01*
X153317265Y-80919444D01*
X153813597Y-80901807D01*
X154048151Y-80946161D01*
G36*
X151777744Y-117997918D02*
X151833201Y-118025568D01*
X151882148Y-118076480D01*
X151895629Y-118095338D01*
X151910314Y-118120015D01*
X151919842Y-118146816D01*
X151925293Y-118182587D01*
X151927747Y-118234169D01*
X151928286Y-118302267D01*
X151925852Y-118395588D01*
X151917394Y-118465657D01*
X151901174Y-118517931D01*
X151875454Y-118557869D01*
X151838497Y-118590929D01*
X151835782Y-118592886D01*
X151799360Y-118612908D01*
X151755502Y-118622815D01*
X151699724Y-118625257D01*
X151609048Y-118625257D01*
X151609010Y-118713283D01*
X151608166Y-118762308D01*
X151603024Y-118791065D01*
X151589587Y-118808311D01*
X151563858Y-118822808D01*
X151557679Y-118825769D01*
X151528764Y-118839648D01*
X151506376Y-118848414D01*
X151489729Y-118849171D01*
X151478036Y-118839023D01*
X151470510Y-118815073D01*
X151466366Y-118774426D01*
X151464815Y-118714186D01*
X151465071Y-118631455D01*
X151466349Y-118523339D01*
X151466748Y-118491000D01*
X151468185Y-118379524D01*
X151469472Y-118306603D01*
X151608971Y-118306603D01*
X151609755Y-118368499D01*
X151613240Y-118408997D01*
X151621124Y-118435708D01*
X151635105Y-118456244D01*
X151644597Y-118466260D01*
X151683404Y-118495567D01*
X151717763Y-118497952D01*
X151753216Y-118473750D01*
X151754114Y-118472857D01*
X151768539Y-118454153D01*
X151777313Y-118428732D01*
X151781739Y-118389584D01*
X151783118Y-118329697D01*
X151783143Y-118316430D01*
X151779812Y-118233901D01*
X151768969Y-118176691D01*
X151749340Y-118141766D01*
X151719650Y-118126094D01*
X151702491Y-118124514D01*
X151661766Y-118131926D01*
X151633832Y-118156330D01*
X151617017Y-118200980D01*
X151609650Y-118269130D01*
X151608971Y-118306603D01*
X151469472Y-118306603D01*
X151469708Y-118293245D01*
X151471677Y-118228333D01*
X151474450Y-118180958D01*
X151478388Y-118147290D01*
X151483849Y-118123498D01*
X151491192Y-118105753D01*
X151500777Y-118090224D01*
X151504887Y-118084381D01*
X151559405Y-118029185D01*
X151628336Y-117997890D01*
X151708072Y-117989165D01*
X151777744Y-117997918D01*
X151777744Y-117997918D01*
G37*
X151777744Y-117997918D02*
X151833201Y-118025568D01*
X151882148Y-118076480D01*
X151895629Y-118095338D01*
X151910314Y-118120015D01*
X151919842Y-118146816D01*
X151925293Y-118182587D01*
X151927747Y-118234169D01*
X151928286Y-118302267D01*
X151925852Y-118395588D01*
X151917394Y-118465657D01*
X151901174Y-118517931D01*
X151875454Y-118557869D01*
X151838497Y-118590929D01*
X151835782Y-118592886D01*
X151799360Y-118612908D01*
X151755502Y-118622815D01*
X151699724Y-118625257D01*
X151609048Y-118625257D01*
X151609010Y-118713283D01*
X151608166Y-118762308D01*
X151603024Y-118791065D01*
X151589587Y-118808311D01*
X151563858Y-118822808D01*
X151557679Y-118825769D01*
X151528764Y-118839648D01*
X151506376Y-118848414D01*
X151489729Y-118849171D01*
X151478036Y-118839023D01*
X151470510Y-118815073D01*
X151466366Y-118774426D01*
X151464815Y-118714186D01*
X151465071Y-118631455D01*
X151466349Y-118523339D01*
X151466748Y-118491000D01*
X151468185Y-118379524D01*
X151469472Y-118306603D01*
X151608971Y-118306603D01*
X151609755Y-118368499D01*
X151613240Y-118408997D01*
X151621124Y-118435708D01*
X151635105Y-118456244D01*
X151644597Y-118466260D01*
X151683404Y-118495567D01*
X151717763Y-118497952D01*
X151753216Y-118473750D01*
X151754114Y-118472857D01*
X151768539Y-118454153D01*
X151777313Y-118428732D01*
X151781739Y-118389584D01*
X151783118Y-118329697D01*
X151783143Y-118316430D01*
X151779812Y-118233901D01*
X151768969Y-118176691D01*
X151749340Y-118141766D01*
X151719650Y-118126094D01*
X151702491Y-118124514D01*
X151661766Y-118131926D01*
X151633832Y-118156330D01*
X151617017Y-118200980D01*
X151609650Y-118269130D01*
X151608971Y-118306603D01*
X151469472Y-118306603D01*
X151469708Y-118293245D01*
X151471677Y-118228333D01*
X151474450Y-118180958D01*
X151478388Y-118147290D01*
X151483849Y-118123498D01*
X151491192Y-118105753D01*
X151500777Y-118090224D01*
X151504887Y-118084381D01*
X151559405Y-118029185D01*
X151628336Y-117997890D01*
X151708072Y-117989165D01*
X151777744Y-117997918D01*
G36*
X152894093Y-118005780D02*
X152940672Y-118032723D01*
X152973057Y-118059466D01*
X152996742Y-118087484D01*
X153013059Y-118121748D01*
X153023339Y-118167227D01*
X153028914Y-118228892D01*
X153031116Y-118311711D01*
X153031371Y-118371246D01*
X153031371Y-118590391D01*
X152969686Y-118618044D01*
X152908000Y-118645697D01*
X152900743Y-118405670D01*
X152897744Y-118316028D01*
X152894598Y-118250962D01*
X152890701Y-118206026D01*
X152885447Y-118176770D01*
X152878231Y-118158748D01*
X152868450Y-118147511D01*
X152865312Y-118145079D01*
X152817761Y-118126083D01*
X152769697Y-118133600D01*
X152741086Y-118153543D01*
X152729447Y-118167675D01*
X152721391Y-118186220D01*
X152716271Y-118214334D01*
X152713441Y-118257173D01*
X152712256Y-118319895D01*
X152712057Y-118385261D01*
X152712018Y-118467268D01*
X152710614Y-118525316D01*
X152705914Y-118564465D01*
X152695987Y-118589780D01*
X152678903Y-118606323D01*
X152652732Y-118619156D01*
X152617775Y-118632491D01*
X152579596Y-118647007D01*
X152584141Y-118389389D01*
X152585971Y-118296519D01*
X152588112Y-118227889D01*
X152591181Y-118178711D01*
X152595794Y-118144198D01*
X152602568Y-118119562D01*
X152612119Y-118100016D01*
X152623634Y-118082770D01*
X152679190Y-118027680D01*
X152746980Y-117995822D01*
X152820713Y-117988191D01*
X152894093Y-118005780D01*
X152894093Y-118005780D01*
G37*
X152894093Y-118005780D02*
X152940672Y-118032723D01*
X152973057Y-118059466D01*
X152996742Y-118087484D01*
X153013059Y-118121748D01*
X153023339Y-118167227D01*
X153028914Y-118228892D01*
X153031116Y-118311711D01*
X153031371Y-118371246D01*
X153031371Y-118590391D01*
X152969686Y-118618044D01*
X152908000Y-118645697D01*
X152900743Y-118405670D01*
X152897744Y-118316028D01*
X152894598Y-118250962D01*
X152890701Y-118206026D01*
X152885447Y-118176770D01*
X152878231Y-118158748D01*
X152868450Y-118147511D01*
X152865312Y-118145079D01*
X152817761Y-118126083D01*
X152769697Y-118133600D01*
X152741086Y-118153543D01*
X152729447Y-118167675D01*
X152721391Y-118186220D01*
X152716271Y-118214334D01*
X152713441Y-118257173D01*
X152712256Y-118319895D01*
X152712057Y-118385261D01*
X152712018Y-118467268D01*
X152710614Y-118525316D01*
X152705914Y-118564465D01*
X152695987Y-118589780D01*
X152678903Y-118606323D01*
X152652732Y-118619156D01*
X152617775Y-118632491D01*
X152579596Y-118647007D01*
X152584141Y-118389389D01*
X152585971Y-118296519D01*
X152588112Y-118227889D01*
X152591181Y-118178711D01*
X152595794Y-118144198D01*
X152602568Y-118119562D01*
X152612119Y-118100016D01*
X152623634Y-118082770D01*
X152679190Y-118027680D01*
X152746980Y-117995822D01*
X152820713Y-117988191D01*
X152894093Y-118005780D01*
G36*
X151219115Y-117999962D02*
X151287145Y-118035733D01*
X151337351Y-118093301D01*
X151355185Y-118130312D01*
X151369063Y-118185882D01*
X151376167Y-118256096D01*
X151376840Y-118332727D01*
X151371427Y-118407552D01*
X151360270Y-118472342D01*
X151343714Y-118518873D01*
X151338626Y-118526887D01*
X151278355Y-118586707D01*
X151206769Y-118622535D01*
X151129092Y-118633020D01*
X151050548Y-118616810D01*
X151028689Y-118607092D01*
X150986122Y-118577143D01*
X150948763Y-118537433D01*
X150945232Y-118532397D01*
X150930881Y-118508124D01*
X150921394Y-118482178D01*
X150915790Y-118448022D01*
X150913086Y-118399119D01*
X150912299Y-118328935D01*
X150912286Y-118313200D01*
X150912322Y-118308192D01*
X151057429Y-118308192D01*
X151058273Y-118374430D01*
X151061596Y-118418386D01*
X151068583Y-118446779D01*
X151080416Y-118466325D01*
X151086457Y-118472857D01*
X151121186Y-118497680D01*
X151154903Y-118496548D01*
X151188995Y-118475016D01*
X151209329Y-118452029D01*
X151221371Y-118418478D01*
X151228134Y-118365569D01*
X151228598Y-118359399D01*
X151229752Y-118263513D01*
X151217688Y-118192299D01*
X151192570Y-118146194D01*
X151154560Y-118125635D01*
X151140992Y-118124514D01*
X151105364Y-118130152D01*
X151080994Y-118149686D01*
X151066093Y-118187042D01*
X151058875Y-118246150D01*
X151057429Y-118308192D01*
X150912322Y-118308192D01*
X150912826Y-118238413D01*
X150915096Y-118186159D01*
X150920068Y-118149949D01*
X150928713Y-118123299D01*
X150942005Y-118099722D01*
X150944943Y-118095338D01*
X150994313Y-118036249D01*
X151048109Y-118001947D01*
X151113602Y-117988331D01*
X151135842Y-117987665D01*
X151219115Y-117999962D01*
X151219115Y-117999962D01*
G37*
X151219115Y-117999962D02*
X151287145Y-118035733D01*
X151337351Y-118093301D01*
X151355185Y-118130312D01*
X151369063Y-118185882D01*
X151376167Y-118256096D01*
X151376840Y-118332727D01*
X151371427Y-118407552D01*
X151360270Y-118472342D01*
X151343714Y-118518873D01*
X151338626Y-118526887D01*
X151278355Y-118586707D01*
X151206769Y-118622535D01*
X151129092Y-118633020D01*
X151050548Y-118616810D01*
X151028689Y-118607092D01*
X150986122Y-118577143D01*
X150948763Y-118537433D01*
X150945232Y-118532397D01*
X150930881Y-118508124D01*
X150921394Y-118482178D01*
X150915790Y-118448022D01*
X150913086Y-118399119D01*
X150912299Y-118328935D01*
X150912286Y-118313200D01*
X150912322Y-118308192D01*
X151057429Y-118308192D01*
X151058273Y-118374430D01*
X151061596Y-118418386D01*
X151068583Y-118446779D01*
X151080416Y-118466325D01*
X151086457Y-118472857D01*
X151121186Y-118497680D01*
X151154903Y-118496548D01*
X151188995Y-118475016D01*
X151209329Y-118452029D01*
X151221371Y-118418478D01*
X151228134Y-118365569D01*
X151228598Y-118359399D01*
X151229752Y-118263513D01*
X151217688Y-118192299D01*
X151192570Y-118146194D01*
X151154560Y-118125635D01*
X151140992Y-118124514D01*
X151105364Y-118130152D01*
X151080994Y-118149686D01*
X151066093Y-118187042D01*
X151058875Y-118246150D01*
X151057429Y-118308192D01*
X150912322Y-118308192D01*
X150912826Y-118238413D01*
X150915096Y-118186159D01*
X150920068Y-118149949D01*
X150928713Y-118123299D01*
X150942005Y-118099722D01*
X150944943Y-118095338D01*
X150994313Y-118036249D01*
X151048109Y-118001947D01*
X151113602Y-117988331D01*
X151135842Y-117987665D01*
X151219115Y-117999962D01*
G36*
X152346303Y-118009239D02*
X152403527Y-118047735D01*
X152447749Y-118103335D01*
X152474167Y-118174086D01*
X152479510Y-118226162D01*
X152478903Y-118247893D01*
X152473822Y-118264531D01*
X152459855Y-118279437D01*
X152432589Y-118295973D01*
X152387612Y-118317498D01*
X152320511Y-118347374D01*
X152320171Y-118347524D01*
X152258407Y-118375813D01*
X152207759Y-118400933D01*
X152173404Y-118420179D01*
X152160518Y-118430848D01*
X152160514Y-118430934D01*
X152171872Y-118454166D01*
X152198431Y-118479774D01*
X152228923Y-118498221D01*
X152244370Y-118501886D01*
X152286515Y-118489212D01*
X152322808Y-118457471D01*
X152340517Y-118422572D01*
X152357552Y-118396845D01*
X152390922Y-118367546D01*
X152430149Y-118342235D01*
X152464756Y-118328471D01*
X152471993Y-118327714D01*
X152480139Y-118340160D01*
X152480630Y-118371972D01*
X152474643Y-118414866D01*
X152463357Y-118460558D01*
X152447950Y-118500761D01*
X152447171Y-118502322D01*
X152400804Y-118567062D01*
X152340711Y-118611097D01*
X152272465Y-118632711D01*
X152201638Y-118630185D01*
X152133804Y-118601804D01*
X152130788Y-118599808D01*
X152077427Y-118551448D01*
X152042340Y-118488352D01*
X152022922Y-118405387D01*
X152020316Y-118382078D01*
X152015701Y-118272055D01*
X152021233Y-118220748D01*
X152160514Y-118220748D01*
X152162324Y-118252753D01*
X152172222Y-118262093D01*
X152196898Y-118255105D01*
X152235795Y-118238587D01*
X152279275Y-118217881D01*
X152280356Y-118217333D01*
X152317209Y-118197949D01*
X152332000Y-118185013D01*
X152328353Y-118171451D01*
X152312995Y-118153632D01*
X152273923Y-118127845D01*
X152231846Y-118125950D01*
X152194103Y-118144717D01*
X152168034Y-118180915D01*
X152160514Y-118220748D01*
X152021233Y-118220748D01*
X152025194Y-118184027D01*
X152049550Y-118114212D01*
X152083456Y-118065302D01*
X152144653Y-118015878D01*
X152212063Y-117991359D01*
X152280880Y-117989797D01*
X152346303Y-118009239D01*
X152346303Y-118009239D01*
G37*
X152346303Y-118009239D02*
X152403527Y-118047735D01*
X152447749Y-118103335D01*
X152474167Y-118174086D01*
X152479510Y-118226162D01*
X152478903Y-118247893D01*
X152473822Y-118264531D01*
X152459855Y-118279437D01*
X152432589Y-118295973D01*
X152387612Y-118317498D01*
X152320511Y-118347374D01*
X152320171Y-118347524D01*
X152258407Y-118375813D01*
X152207759Y-118400933D01*
X152173404Y-118420179D01*
X152160518Y-118430848D01*
X152160514Y-118430934D01*
X152171872Y-118454166D01*
X152198431Y-118479774D01*
X152228923Y-118498221D01*
X152244370Y-118501886D01*
X152286515Y-118489212D01*
X152322808Y-118457471D01*
X152340517Y-118422572D01*
X152357552Y-118396845D01*
X152390922Y-118367546D01*
X152430149Y-118342235D01*
X152464756Y-118328471D01*
X152471993Y-118327714D01*
X152480139Y-118340160D01*
X152480630Y-118371972D01*
X152474643Y-118414866D01*
X152463357Y-118460558D01*
X152447950Y-118500761D01*
X152447171Y-118502322D01*
X152400804Y-118567062D01*
X152340711Y-118611097D01*
X152272465Y-118632711D01*
X152201638Y-118630185D01*
X152133804Y-118601804D01*
X152130788Y-118599808D01*
X152077427Y-118551448D01*
X152042340Y-118488352D01*
X152022922Y-118405387D01*
X152020316Y-118382078D01*
X152015701Y-118272055D01*
X152021233Y-118220748D01*
X152160514Y-118220748D01*
X152162324Y-118252753D01*
X152172222Y-118262093D01*
X152196898Y-118255105D01*
X152235795Y-118238587D01*
X152279275Y-118217881D01*
X152280356Y-118217333D01*
X152317209Y-118197949D01*
X152332000Y-118185013D01*
X152328353Y-118171451D01*
X152312995Y-118153632D01*
X152273923Y-118127845D01*
X152231846Y-118125950D01*
X152194103Y-118144717D01*
X152168034Y-118180915D01*
X152160514Y-118220748D01*
X152021233Y-118220748D01*
X152025194Y-118184027D01*
X152049550Y-118114212D01*
X152083456Y-118065302D01*
X152144653Y-118015878D01*
X152212063Y-117991359D01*
X152280880Y-117989797D01*
X152346303Y-118009239D01*
G36*
X153553886Y-117929289D02*
X153558139Y-117988613D01*
X153563025Y-118023572D01*
X153569795Y-118038820D01*
X153579702Y-118039015D01*
X153582914Y-118037195D01*
X153625644Y-118024015D01*
X153681227Y-118024785D01*
X153737737Y-118038333D01*
X153773082Y-118055861D01*
X153809321Y-118083861D01*
X153835813Y-118115549D01*
X153853999Y-118155813D01*
X153865322Y-118209543D01*
X153871222Y-118281626D01*
X153873143Y-118376951D01*
X153873177Y-118395237D01*
X153873200Y-118600646D01*
X153827491Y-118616580D01*
X153795027Y-118627420D01*
X153777215Y-118632468D01*
X153776691Y-118632514D01*
X153774937Y-118618828D01*
X153773444Y-118581076D01*
X153772326Y-118524224D01*
X153771697Y-118453234D01*
X153771600Y-118410073D01*
X153771398Y-118324973D01*
X153770358Y-118263981D01*
X153767831Y-118222177D01*
X153763164Y-118194642D01*
X153755707Y-118176456D01*
X153744811Y-118162698D01*
X153738007Y-118156073D01*
X153691272Y-118129375D01*
X153640272Y-118127375D01*
X153594001Y-118149955D01*
X153585444Y-118158107D01*
X153572893Y-118173436D01*
X153564188Y-118191618D01*
X153558631Y-118217909D01*
X153555526Y-118257562D01*
X153554176Y-118315832D01*
X153553886Y-118396173D01*
X153553886Y-118600646D01*
X153508177Y-118616580D01*
X153475713Y-118627420D01*
X153457901Y-118632468D01*
X153457377Y-118632514D01*
X153456037Y-118618623D01*
X153454828Y-118579439D01*
X153453801Y-118518700D01*
X153453002Y-118440141D01*
X153452481Y-118347498D01*
X153452286Y-118244509D01*
X153452286Y-117847342D01*
X153499457Y-117827444D01*
X153546629Y-117807547D01*
X153553886Y-117929289D01*
X153553886Y-117929289D01*
G37*
X153553886Y-117929289D02*
X153558139Y-117988613D01*
X153563025Y-118023572D01*
X153569795Y-118038820D01*
X153579702Y-118039015D01*
X153582914Y-118037195D01*
X153625644Y-118024015D01*
X153681227Y-118024785D01*
X153737737Y-118038333D01*
X153773082Y-118055861D01*
X153809321Y-118083861D01*
X153835813Y-118115549D01*
X153853999Y-118155813D01*
X153865322Y-118209543D01*
X153871222Y-118281626D01*
X153873143Y-118376951D01*
X153873177Y-118395237D01*
X153873200Y-118600646D01*
X153827491Y-118616580D01*
X153795027Y-118627420D01*
X153777215Y-118632468D01*
X153776691Y-118632514D01*
X153774937Y-118618828D01*
X153773444Y-118581076D01*
X153772326Y-118524224D01*
X153771697Y-118453234D01*
X153771600Y-118410073D01*
X153771398Y-118324973D01*
X153770358Y-118263981D01*
X153767831Y-118222177D01*
X153763164Y-118194642D01*
X153755707Y-118176456D01*
X153744811Y-118162698D01*
X153738007Y-118156073D01*
X153691272Y-118129375D01*
X153640272Y-118127375D01*
X153594001Y-118149955D01*
X153585444Y-118158107D01*
X153572893Y-118173436D01*
X153564188Y-118191618D01*
X153558631Y-118217909D01*
X153555526Y-118257562D01*
X153554176Y-118315832D01*
X153553886Y-118396173D01*
X153553886Y-118600646D01*
X153508177Y-118616580D01*
X153475713Y-118627420D01*
X153457901Y-118632468D01*
X153457377Y-118632514D01*
X153456037Y-118618623D01*
X153454828Y-118579439D01*
X153453801Y-118518700D01*
X153453002Y-118440141D01*
X153452481Y-118347498D01*
X153452286Y-118244509D01*
X153452286Y-117847342D01*
X153499457Y-117827444D01*
X153546629Y-117807547D01*
X153553886Y-117929289D01*
G36*
X154217744Y-118028968D02*
X154274616Y-118050087D01*
X154275267Y-118050493D01*
X154310440Y-118076380D01*
X154336407Y-118106633D01*
X154354670Y-118146058D01*
X154366732Y-118199462D01*
X154374096Y-118271651D01*
X154378264Y-118367432D01*
X154378629Y-118381078D01*
X154383876Y-118586842D01*
X154339716Y-118609678D01*
X154307763Y-118625110D01*
X154288470Y-118632423D01*
X154287578Y-118632514D01*
X154284239Y-118619022D01*
X154281587Y-118582626D01*
X154279956Y-118529452D01*
X154279600Y-118486393D01*
X154279592Y-118416641D01*
X154276403Y-118372837D01*
X154265288Y-118351944D01*
X154241501Y-118350925D01*
X154200296Y-118366741D01*
X154138086Y-118395815D01*
X154092341Y-118419963D01*
X154068813Y-118440913D01*
X154061896Y-118463747D01*
X154061886Y-118464877D01*
X154073299Y-118504212D01*
X154107092Y-118525462D01*
X154158809Y-118528539D01*
X154196061Y-118528006D01*
X154215703Y-118538735D01*
X154227952Y-118564505D01*
X154235002Y-118597337D01*
X154224842Y-118615966D01*
X154221017Y-118618632D01*
X154185001Y-118629340D01*
X154134566Y-118630856D01*
X154082626Y-118623759D01*
X154045822Y-118610788D01*
X153994938Y-118567585D01*
X153966014Y-118507446D01*
X153960286Y-118460462D01*
X153964657Y-118418082D01*
X153980475Y-118383488D01*
X154011797Y-118352763D01*
X154062678Y-118321990D01*
X154137176Y-118287252D01*
X154141714Y-118285288D01*
X154208821Y-118254287D01*
X154250232Y-118228862D01*
X154267981Y-118206014D01*
X154264107Y-118182745D01*
X154240643Y-118156056D01*
X154233627Y-118149914D01*
X154186630Y-118126100D01*
X154137933Y-118127103D01*
X154095522Y-118150451D01*
X154067384Y-118193675D01*
X154064769Y-118202160D01*
X154039308Y-118243308D01*
X154007001Y-118263128D01*
X153960286Y-118282770D01*
X153960286Y-118231950D01*
X153974496Y-118158082D01*
X154016675Y-118090327D01*
X154038624Y-118067661D01*
X154088517Y-118038569D01*
X154151967Y-118025400D01*
X154217744Y-118028968D01*
X154217744Y-118028968D01*
G37*
X154217744Y-118028968D02*
X154274616Y-118050087D01*
X154275267Y-118050493D01*
X154310440Y-118076380D01*
X154336407Y-118106633D01*
X154354670Y-118146058D01*
X154366732Y-118199462D01*
X154374096Y-118271651D01*
X154378264Y-118367432D01*
X154378629Y-118381078D01*
X154383876Y-118586842D01*
X154339716Y-118609678D01*
X154307763Y-118625110D01*
X154288470Y-118632423D01*
X154287578Y-118632514D01*
X154284239Y-118619022D01*
X154281587Y-118582626D01*
X154279956Y-118529452D01*
X154279600Y-118486393D01*
X154279592Y-118416641D01*
X154276403Y-118372837D01*
X154265288Y-118351944D01*
X154241501Y-118350925D01*
X154200296Y-118366741D01*
X154138086Y-118395815D01*
X154092341Y-118419963D01*
X154068813Y-118440913D01*
X154061896Y-118463747D01*
X154061886Y-118464877D01*
X154073299Y-118504212D01*
X154107092Y-118525462D01*
X154158809Y-118528539D01*
X154196061Y-118528006D01*
X154215703Y-118538735D01*
X154227952Y-118564505D01*
X154235002Y-118597337D01*
X154224842Y-118615966D01*
X154221017Y-118618632D01*
X154185001Y-118629340D01*
X154134566Y-118630856D01*
X154082626Y-118623759D01*
X154045822Y-118610788D01*
X153994938Y-118567585D01*
X153966014Y-118507446D01*
X153960286Y-118460462D01*
X153964657Y-118418082D01*
X153980475Y-118383488D01*
X154011797Y-118352763D01*
X154062678Y-118321990D01*
X154137176Y-118287252D01*
X154141714Y-118285288D01*
X154208821Y-118254287D01*
X154250232Y-118228862D01*
X154267981Y-118206014D01*
X154264107Y-118182745D01*
X154240643Y-118156056D01*
X154233627Y-118149914D01*
X154186630Y-118126100D01*
X154137933Y-118127103D01*
X154095522Y-118150451D01*
X154067384Y-118193675D01*
X154064769Y-118202160D01*
X154039308Y-118243308D01*
X154007001Y-118263128D01*
X153960286Y-118282770D01*
X153960286Y-118231950D01*
X153974496Y-118158082D01*
X154016675Y-118090327D01*
X154038624Y-118067661D01*
X154088517Y-118038569D01*
X154151967Y-118025400D01*
X154217744Y-118028968D01*
G36*
X154707926Y-118027755D02*
X154773858Y-118052084D01*
X154827273Y-118095117D01*
X154848164Y-118125409D01*
X154870939Y-118180994D01*
X154870466Y-118221186D01*
X154846562Y-118248217D01*
X154837717Y-118252813D01*
X154799530Y-118267144D01*
X154780028Y-118263472D01*
X154773422Y-118239407D01*
X154773086Y-118226114D01*
X154760992Y-118177210D01*
X154729471Y-118142999D01*
X154685659Y-118126476D01*
X154636695Y-118130634D01*
X154596894Y-118152227D01*
X154583450Y-118164544D01*
X154573921Y-118179487D01*
X154567485Y-118202075D01*
X154563317Y-118237328D01*
X154560597Y-118290266D01*
X154558502Y-118365907D01*
X154557960Y-118389857D01*
X154555981Y-118471790D01*
X154553731Y-118529455D01*
X154550357Y-118567608D01*
X154545006Y-118591004D01*
X154536824Y-118604398D01*
X154524959Y-118612545D01*
X154517362Y-118616144D01*
X154485102Y-118628452D01*
X154466111Y-118632514D01*
X154459836Y-118618948D01*
X154456006Y-118577934D01*
X154454600Y-118508999D01*
X154455598Y-118411669D01*
X154455908Y-118396657D01*
X154458101Y-118307859D01*
X154460693Y-118243019D01*
X154464382Y-118197067D01*
X154469864Y-118164935D01*
X154477835Y-118141553D01*
X154488993Y-118121852D01*
X154494830Y-118113410D01*
X154528296Y-118076057D01*
X154565727Y-118047003D01*
X154570309Y-118044467D01*
X154637426Y-118024443D01*
X154707926Y-118027755D01*
X154707926Y-118027755D01*
G37*
X154707926Y-118027755D02*
X154773858Y-118052084D01*
X154827273Y-118095117D01*
X154848164Y-118125409D01*
X154870939Y-118180994D01*
X154870466Y-118221186D01*
X154846562Y-118248217D01*
X154837717Y-118252813D01*
X154799530Y-118267144D01*
X154780028Y-118263472D01*
X154773422Y-118239407D01*
X154773086Y-118226114D01*
X154760992Y-118177210D01*
X154729471Y-118142999D01*
X154685659Y-118126476D01*
X154636695Y-118130634D01*
X154596894Y-118152227D01*
X154583450Y-118164544D01*
X154573921Y-118179487D01*
X154567485Y-118202075D01*
X154563317Y-118237328D01*
X154560597Y-118290266D01*
X154558502Y-118365907D01*
X154557960Y-118389857D01*
X154555981Y-118471790D01*
X154553731Y-118529455D01*
X154550357Y-118567608D01*
X154545006Y-118591004D01*
X154536824Y-118604398D01*
X154524959Y-118612545D01*
X154517362Y-118616144D01*
X154485102Y-118628452D01*
X154466111Y-118632514D01*
X154459836Y-118618948D01*
X154456006Y-118577934D01*
X154454600Y-118508999D01*
X154455598Y-118411669D01*
X154455908Y-118396657D01*
X154458101Y-118307859D01*
X154460693Y-118243019D01*
X154464382Y-118197067D01*
X154469864Y-118164935D01*
X154477835Y-118141553D01*
X154488993Y-118121852D01*
X154494830Y-118113410D01*
X154528296Y-118076057D01*
X154565727Y-118047003D01*
X154570309Y-118044467D01*
X154637426Y-118024443D01*
X154707926Y-118027755D01*
G36*
X155368117Y-118143358D02*
X155367933Y-118251837D01*
X155367219Y-118335287D01*
X155365675Y-118397704D01*
X155363001Y-118443085D01*
X155358894Y-118475429D01*
X155353055Y-118498733D01*
X155345182Y-118516995D01*
X155339221Y-118527418D01*
X155289855Y-118583945D01*
X155227264Y-118619377D01*
X155158013Y-118632090D01*
X155088668Y-118620463D01*
X155047375Y-118599568D01*
X155004025Y-118563422D01*
X154974481Y-118519276D01*
X154956655Y-118461462D01*
X154948463Y-118384313D01*
X154947302Y-118327714D01*
X154947458Y-118323647D01*
X155048857Y-118323647D01*
X155049476Y-118388550D01*
X155052314Y-118431514D01*
X155058840Y-118459622D01*
X155070523Y-118479953D01*
X155084483Y-118495288D01*
X155131365Y-118524890D01*
X155181701Y-118527419D01*
X155229276Y-118502705D01*
X155232979Y-118499356D01*
X155248783Y-118481935D01*
X155258693Y-118461209D01*
X155264058Y-118430362D01*
X155266228Y-118382577D01*
X155266571Y-118329748D01*
X155265827Y-118263381D01*
X155262748Y-118219106D01*
X155256061Y-118190009D01*
X155244496Y-118169173D01*
X155235013Y-118158107D01*
X155190960Y-118130198D01*
X155140224Y-118126843D01*
X155091796Y-118148159D01*
X155082450Y-118156073D01*
X155066540Y-118173647D01*
X155056610Y-118194587D01*
X155051278Y-118225782D01*
X155049163Y-118274122D01*
X155048857Y-118323647D01*
X154947458Y-118323647D01*
X154950810Y-118236568D01*
X154962726Y-118168086D01*
X154985135Y-118116600D01*
X155020124Y-118076443D01*
X155047375Y-118055861D01*
X155096907Y-118033625D01*
X155154316Y-118023304D01*
X155207682Y-118026067D01*
X155237543Y-118037212D01*
X155249261Y-118040383D01*
X155257037Y-118028557D01*
X155262465Y-117996866D01*
X155266571Y-117948593D01*
X155271067Y-117894829D01*
X155277313Y-117862482D01*
X155288676Y-117843985D01*
X155308528Y-117831770D01*
X155321000Y-117826362D01*
X155368171Y-117806601D01*
X155368117Y-118143358D01*
X155368117Y-118143358D01*
G37*
X155368117Y-118143358D02*
X155367933Y-118251837D01*
X155367219Y-118335287D01*
X155365675Y-118397704D01*
X155363001Y-118443085D01*
X155358894Y-118475429D01*
X155353055Y-118498733D01*
X155345182Y-118516995D01*
X155339221Y-118527418D01*
X155289855Y-118583945D01*
X155227264Y-118619377D01*
X155158013Y-118632090D01*
X155088668Y-118620463D01*
X155047375Y-118599568D01*
X155004025Y-118563422D01*
X154974481Y-118519276D01*
X154956655Y-118461462D01*
X154948463Y-118384313D01*
X154947302Y-118327714D01*
X154947458Y-118323647D01*
X155048857Y-118323647D01*
X155049476Y-118388550D01*
X155052314Y-118431514D01*
X155058840Y-118459622D01*
X155070523Y-118479953D01*
X155084483Y-118495288D01*
X155131365Y-118524890D01*
X155181701Y-118527419D01*
X155229276Y-118502705D01*
X155232979Y-118499356D01*
X155248783Y-118481935D01*
X155258693Y-118461209D01*
X155264058Y-118430362D01*
X155266228Y-118382577D01*
X155266571Y-118329748D01*
X155265827Y-118263381D01*
X155262748Y-118219106D01*
X155256061Y-118190009D01*
X155244496Y-118169173D01*
X155235013Y-118158107D01*
X155190960Y-118130198D01*
X155140224Y-118126843D01*
X155091796Y-118148159D01*
X155082450Y-118156073D01*
X155066540Y-118173647D01*
X155056610Y-118194587D01*
X155051278Y-118225782D01*
X155049163Y-118274122D01*
X155048857Y-118323647D01*
X154947458Y-118323647D01*
X154950810Y-118236568D01*
X154962726Y-118168086D01*
X154985135Y-118116600D01*
X155020124Y-118076443D01*
X155047375Y-118055861D01*
X155096907Y-118033625D01*
X155154316Y-118023304D01*
X155207682Y-118026067D01*
X155237543Y-118037212D01*
X155249261Y-118040383D01*
X155257037Y-118028557D01*
X155262465Y-117996866D01*
X155266571Y-117948593D01*
X155271067Y-117894829D01*
X155277313Y-117862482D01*
X155288676Y-117843985D01*
X155308528Y-117831770D01*
X155321000Y-117826362D01*
X155368171Y-117806601D01*
X155368117Y-118143358D01*
G36*
X155957833Y-118036663D02*
X155960048Y-118074850D01*
X155961784Y-118132886D01*
X155962899Y-118206180D01*
X155963257Y-118283055D01*
X155963257Y-118543196D01*
X155917326Y-118589127D01*
X155885675Y-118617429D01*
X155857890Y-118628893D01*
X155819915Y-118628168D01*
X155804840Y-118626321D01*
X155757726Y-118620948D01*
X155718756Y-118617869D01*
X155709257Y-118617585D01*
X155677233Y-118619445D01*
X155631432Y-118624114D01*
X155613674Y-118626321D01*
X155570057Y-118629735D01*
X155540745Y-118622320D01*
X155511680Y-118599427D01*
X155501188Y-118589127D01*
X155455257Y-118543196D01*
X155455257Y-118056602D01*
X155492226Y-118039758D01*
X155524059Y-118027282D01*
X155542683Y-118022914D01*
X155547458Y-118036718D01*
X155551921Y-118075286D01*
X155555775Y-118134356D01*
X155558722Y-118209663D01*
X155560143Y-118273286D01*
X155564114Y-118523657D01*
X155598759Y-118528556D01*
X155630268Y-118525131D01*
X155645708Y-118514041D01*
X155650023Y-118493308D01*
X155653708Y-118449145D01*
X155656469Y-118387146D01*
X155658012Y-118312909D01*
X155658235Y-118274706D01*
X155658457Y-118054783D01*
X155704166Y-118038849D01*
X155736518Y-118028015D01*
X155754115Y-118022962D01*
X155754623Y-118022914D01*
X155756388Y-118036648D01*
X155758329Y-118074730D01*
X155760282Y-118132482D01*
X155762084Y-118205227D01*
X155763343Y-118273286D01*
X155767314Y-118523657D01*
X155854400Y-118523657D01*
X155858396Y-118295240D01*
X155862392Y-118066822D01*
X155904847Y-118044868D01*
X155936192Y-118029793D01*
X155954744Y-118022951D01*
X155955279Y-118022914D01*
X155957833Y-118036663D01*
X155957833Y-118036663D01*
G37*
X155957833Y-118036663D02*
X155960048Y-118074850D01*
X155961784Y-118132886D01*
X155962899Y-118206180D01*
X155963257Y-118283055D01*
X155963257Y-118543196D01*
X155917326Y-118589127D01*
X155885675Y-118617429D01*
X155857890Y-118628893D01*
X155819915Y-118628168D01*
X155804840Y-118626321D01*
X155757726Y-118620948D01*
X155718756Y-118617869D01*
X155709257Y-118617585D01*
X155677233Y-118619445D01*
X155631432Y-118624114D01*
X155613674Y-118626321D01*
X155570057Y-118629735D01*
X155540745Y-118622320D01*
X155511680Y-118599427D01*
X155501188Y-118589127D01*
X155455257Y-118543196D01*
X155455257Y-118056602D01*
X155492226Y-118039758D01*
X155524059Y-118027282D01*
X155542683Y-118022914D01*
X155547458Y-118036718D01*
X155551921Y-118075286D01*
X155555775Y-118134356D01*
X155558722Y-118209663D01*
X155560143Y-118273286D01*
X155564114Y-118523657D01*
X155598759Y-118528556D01*
X155630268Y-118525131D01*
X155645708Y-118514041D01*
X155650023Y-118493308D01*
X155653708Y-118449145D01*
X155656469Y-118387146D01*
X155658012Y-118312909D01*
X155658235Y-118274706D01*
X155658457Y-118054783D01*
X155704166Y-118038849D01*
X155736518Y-118028015D01*
X155754115Y-118022962D01*
X155754623Y-118022914D01*
X155756388Y-118036648D01*
X155758329Y-118074730D01*
X155760282Y-118132482D01*
X155762084Y-118205227D01*
X155763343Y-118273286D01*
X155767314Y-118523657D01*
X155854400Y-118523657D01*
X155858396Y-118295240D01*
X155862392Y-118066822D01*
X155904847Y-118044868D01*
X155936192Y-118029793D01*
X155954744Y-118022951D01*
X155955279Y-118022914D01*
X155957833Y-118036663D01*
G36*
X156322876Y-118034335D02*
X156364667Y-118053344D01*
X156397469Y-118076378D01*
X156421503Y-118102133D01*
X156438097Y-118135358D01*
X156448577Y-118180800D01*
X156454271Y-118243207D01*
X156456507Y-118327327D01*
X156456743Y-118382721D01*
X156456743Y-118598826D01*
X156419774Y-118615670D01*
X156390656Y-118627981D01*
X156376231Y-118632514D01*
X156373472Y-118619025D01*
X156371282Y-118582653D01*
X156369942Y-118529542D01*
X156369657Y-118487372D01*
X156368434Y-118426447D01*
X156365136Y-118378115D01*
X156360321Y-118348518D01*
X156356496Y-118342229D01*
X156330783Y-118348652D01*
X156290418Y-118365125D01*
X156243679Y-118387458D01*
X156198845Y-118411457D01*
X156164193Y-118432930D01*
X156148002Y-118447685D01*
X156147938Y-118447845D01*
X156149330Y-118475152D01*
X156161818Y-118501219D01*
X156183743Y-118522392D01*
X156215743Y-118529474D01*
X156243092Y-118528649D01*
X156281826Y-118528042D01*
X156302158Y-118537116D01*
X156314369Y-118561092D01*
X156315909Y-118565613D01*
X156321203Y-118599806D01*
X156307047Y-118620568D01*
X156270148Y-118630462D01*
X156230289Y-118632292D01*
X156158562Y-118618727D01*
X156121432Y-118599355D01*
X156075576Y-118553845D01*
X156051256Y-118497983D01*
X156049073Y-118438957D01*
X156069629Y-118383953D01*
X156100549Y-118349486D01*
X156131420Y-118330189D01*
X156179942Y-118305759D01*
X156236485Y-118280985D01*
X156245910Y-118277199D01*
X156308019Y-118249791D01*
X156343822Y-118225634D01*
X156355337Y-118201619D01*
X156344580Y-118174635D01*
X156326114Y-118153543D01*
X156282469Y-118127572D01*
X156234446Y-118125624D01*
X156190406Y-118145637D01*
X156158709Y-118185551D01*
X156154549Y-118195848D01*
X156130327Y-118233724D01*
X156094965Y-118261842D01*
X156050343Y-118284917D01*
X156050343Y-118219485D01*
X156052969Y-118179506D01*
X156064230Y-118147997D01*
X156089199Y-118114378D01*
X156113169Y-118088484D01*
X156150441Y-118051817D01*
X156179401Y-118032121D01*
X156210505Y-118024220D01*
X156245713Y-118022914D01*
X156322876Y-118034335D01*
X156322876Y-118034335D01*
G37*
X156322876Y-118034335D02*
X156364667Y-118053344D01*
X156397469Y-118076378D01*
X156421503Y-118102133D01*
X156438097Y-118135358D01*
X156448577Y-118180800D01*
X156454271Y-118243207D01*
X156456507Y-118327327D01*
X156456743Y-118382721D01*
X156456743Y-118598826D01*
X156419774Y-118615670D01*
X156390656Y-118627981D01*
X156376231Y-118632514D01*
X156373472Y-118619025D01*
X156371282Y-118582653D01*
X156369942Y-118529542D01*
X156369657Y-118487372D01*
X156368434Y-118426447D01*
X156365136Y-118378115D01*
X156360321Y-118348518D01*
X156356496Y-118342229D01*
X156330783Y-118348652D01*
X156290418Y-118365125D01*
X156243679Y-118387458D01*
X156198845Y-118411457D01*
X156164193Y-118432930D01*
X156148002Y-118447685D01*
X156147938Y-118447845D01*
X156149330Y-118475152D01*
X156161818Y-118501219D01*
X156183743Y-118522392D01*
X156215743Y-118529474D01*
X156243092Y-118528649D01*
X156281826Y-118528042D01*
X156302158Y-118537116D01*
X156314369Y-118561092D01*
X156315909Y-118565613D01*
X156321203Y-118599806D01*
X156307047Y-118620568D01*
X156270148Y-118630462D01*
X156230289Y-118632292D01*
X156158562Y-118618727D01*
X156121432Y-118599355D01*
X156075576Y-118553845D01*
X156051256Y-118497983D01*
X156049073Y-118438957D01*
X156069629Y-118383953D01*
X156100549Y-118349486D01*
X156131420Y-118330189D01*
X156179942Y-118305759D01*
X156236485Y-118280985D01*
X156245910Y-118277199D01*
X156308019Y-118249791D01*
X156343822Y-118225634D01*
X156355337Y-118201619D01*
X156344580Y-118174635D01*
X156326114Y-118153543D01*
X156282469Y-118127572D01*
X156234446Y-118125624D01*
X156190406Y-118145637D01*
X156158709Y-118185551D01*
X156154549Y-118195848D01*
X156130327Y-118233724D01*
X156094965Y-118261842D01*
X156050343Y-118284917D01*
X156050343Y-118219485D01*
X156052969Y-118179506D01*
X156064230Y-118147997D01*
X156089199Y-118114378D01*
X156113169Y-118088484D01*
X156150441Y-118051817D01*
X156179401Y-118032121D01*
X156210505Y-118024220D01*
X156245713Y-118022914D01*
X156322876Y-118034335D01*
G36*
X156830600Y-118036752D02*
X156847948Y-118044334D01*
X156889356Y-118077128D01*
X156924765Y-118124547D01*
X156946664Y-118175151D01*
X156950229Y-118200098D01*
X156938279Y-118234927D01*
X156912067Y-118253357D01*
X156883964Y-118264516D01*
X156871095Y-118266572D01*
X156864829Y-118251649D01*
X156852456Y-118219175D01*
X156847028Y-118204502D01*
X156816590Y-118153744D01*
X156772520Y-118128427D01*
X156716010Y-118129206D01*
X156711825Y-118130203D01*
X156681655Y-118144507D01*
X156659476Y-118172393D01*
X156644327Y-118217287D01*
X156635250Y-118282615D01*
X156631286Y-118371804D01*
X156630914Y-118419261D01*
X156630730Y-118494071D01*
X156629522Y-118545069D01*
X156626309Y-118577471D01*
X156620109Y-118596495D01*
X156609940Y-118607356D01*
X156594819Y-118615272D01*
X156593946Y-118615670D01*
X156564828Y-118627981D01*
X156550403Y-118632514D01*
X156548186Y-118618809D01*
X156546289Y-118580925D01*
X156544847Y-118523715D01*
X156543998Y-118452027D01*
X156543829Y-118399565D01*
X156544692Y-118298047D01*
X156548070Y-118221032D01*
X156555142Y-118164023D01*
X156567088Y-118122526D01*
X156585090Y-118092043D01*
X156610327Y-118068080D01*
X156635247Y-118051355D01*
X156695171Y-118029097D01*
X156764911Y-118024076D01*
X156830600Y-118036752D01*
X156830600Y-118036752D01*
G37*
X156830600Y-118036752D02*
X156847948Y-118044334D01*
X156889356Y-118077128D01*
X156924765Y-118124547D01*
X156946664Y-118175151D01*
X156950229Y-118200098D01*
X156938279Y-118234927D01*
X156912067Y-118253357D01*
X156883964Y-118264516D01*
X156871095Y-118266572D01*
X156864829Y-118251649D01*
X156852456Y-118219175D01*
X156847028Y-118204502D01*
X156816590Y-118153744D01*
X156772520Y-118128427D01*
X156716010Y-118129206D01*
X156711825Y-118130203D01*
X156681655Y-118144507D01*
X156659476Y-118172393D01*
X156644327Y-118217287D01*
X156635250Y-118282615D01*
X156631286Y-118371804D01*
X156630914Y-118419261D01*
X156630730Y-118494071D01*
X156629522Y-118545069D01*
X156626309Y-118577471D01*
X156620109Y-118596495D01*
X156609940Y-118607356D01*
X156594819Y-118615272D01*
X156593946Y-118615670D01*
X156564828Y-118627981D01*
X156550403Y-118632514D01*
X156548186Y-118618809D01*
X156546289Y-118580925D01*
X156544847Y-118523715D01*
X156543998Y-118452027D01*
X156543829Y-118399565D01*
X156544692Y-118298047D01*
X156548070Y-118221032D01*
X156555142Y-118164023D01*
X156567088Y-118122526D01*
X156585090Y-118092043D01*
X156610327Y-118068080D01*
X156635247Y-118051355D01*
X156695171Y-118029097D01*
X156764911Y-118024076D01*
X156830600Y-118036752D01*
G36*
X157331595Y-118044966D02*
X157389021Y-118082497D01*
X157416719Y-118116096D01*
X157438662Y-118177064D01*
X157440405Y-118225308D01*
X157436457Y-118289816D01*
X157287686Y-118354934D01*
X157215349Y-118388202D01*
X157168084Y-118414964D01*
X157143507Y-118438144D01*
X157139237Y-118460667D01*
X157152889Y-118485455D01*
X157167943Y-118501886D01*
X157211746Y-118528235D01*
X157259389Y-118530081D01*
X157303145Y-118509546D01*
X157335289Y-118468752D01*
X157341038Y-118454347D01*
X157368576Y-118409356D01*
X157400258Y-118390182D01*
X157443714Y-118373779D01*
X157443714Y-118435966D01*
X157439872Y-118478283D01*
X157424823Y-118513969D01*
X157393280Y-118554943D01*
X157388592Y-118560267D01*
X157353506Y-118596720D01*
X157323347Y-118616283D01*
X157285615Y-118625283D01*
X157254335Y-118628230D01*
X157198385Y-118628965D01*
X157158555Y-118619660D01*
X157133708Y-118605846D01*
X157094656Y-118575467D01*
X157067625Y-118542613D01*
X157050517Y-118501294D01*
X157041238Y-118445521D01*
X157037693Y-118369305D01*
X157037410Y-118330622D01*
X157038372Y-118284247D01*
X157126007Y-118284247D01*
X157127023Y-118309126D01*
X157129556Y-118313200D01*
X157146274Y-118307665D01*
X157182249Y-118293017D01*
X157230331Y-118272190D01*
X157240386Y-118267714D01*
X157301152Y-118236814D01*
X157334632Y-118209657D01*
X157341990Y-118184220D01*
X157324391Y-118158481D01*
X157309856Y-118147109D01*
X157257410Y-118124364D01*
X157208322Y-118128122D01*
X157167227Y-118155884D01*
X157138758Y-118205152D01*
X157129631Y-118244257D01*
X157126007Y-118284247D01*
X157038372Y-118284247D01*
X157039285Y-118240249D01*
X157046196Y-118173384D01*
X157059884Y-118124695D01*
X157082096Y-118088849D01*
X157114574Y-118060513D01*
X157128733Y-118051355D01*
X157193053Y-118027507D01*
X157263473Y-118026006D01*
X157331595Y-118044966D01*
X157331595Y-118044966D01*
G37*
X157331595Y-118044966D02*
X157389021Y-118082497D01*
X157416719Y-118116096D01*
X157438662Y-118177064D01*
X157440405Y-118225308D01*
X157436457Y-118289816D01*
X157287686Y-118354934D01*
X157215349Y-118388202D01*
X157168084Y-118414964D01*
X157143507Y-118438144D01*
X157139237Y-118460667D01*
X157152889Y-118485455D01*
X157167943Y-118501886D01*
X157211746Y-118528235D01*
X157259389Y-118530081D01*
X157303145Y-118509546D01*
X157335289Y-118468752D01*
X157341038Y-118454347D01*
X157368576Y-118409356D01*
X157400258Y-118390182D01*
X157443714Y-118373779D01*
X157443714Y-118435966D01*
X157439872Y-118478283D01*
X157424823Y-118513969D01*
X157393280Y-118554943D01*
X157388592Y-118560267D01*
X157353506Y-118596720D01*
X157323347Y-118616283D01*
X157285615Y-118625283D01*
X157254335Y-118628230D01*
X157198385Y-118628965D01*
X157158555Y-118619660D01*
X157133708Y-118605846D01*
X157094656Y-118575467D01*
X157067625Y-118542613D01*
X157050517Y-118501294D01*
X157041238Y-118445521D01*
X157037693Y-118369305D01*
X157037410Y-118330622D01*
X157038372Y-118284247D01*
X157126007Y-118284247D01*
X157127023Y-118309126D01*
X157129556Y-118313200D01*
X157146274Y-118307665D01*
X157182249Y-118293017D01*
X157230331Y-118272190D01*
X157240386Y-118267714D01*
X157301152Y-118236814D01*
X157334632Y-118209657D01*
X157341990Y-118184220D01*
X157324391Y-118158481D01*
X157309856Y-118147109D01*
X157257410Y-118124364D01*
X157208322Y-118128122D01*
X157167227Y-118155884D01*
X157138758Y-118205152D01*
X157129631Y-118244257D01*
X157126007Y-118284247D01*
X157038372Y-118284247D01*
X157039285Y-118240249D01*
X157046196Y-118173384D01*
X157059884Y-118124695D01*
X157082096Y-118088849D01*
X157114574Y-118060513D01*
X157128733Y-118051355D01*
X157193053Y-118027507D01*
X157263473Y-118026006D01*
X157331595Y-118044966D01*
G36*
X154281910Y-113320348D02*
X154360454Y-113320778D01*
X154417298Y-113321942D01*
X154456105Y-113324207D01*
X154480538Y-113327940D01*
X154494262Y-113333506D01*
X154500940Y-113341273D01*
X154504236Y-113351605D01*
X154504556Y-113352943D01*
X154509562Y-113377079D01*
X154518829Y-113424701D01*
X154531392Y-113490741D01*
X154546287Y-113570128D01*
X154562551Y-113657796D01*
X154563119Y-113660875D01*
X154579410Y-113746789D01*
X154594652Y-113822696D01*
X154607861Y-113884045D01*
X154618054Y-113926282D01*
X154624248Y-113944855D01*
X154624543Y-113945184D01*
X154642788Y-113954253D01*
X154680405Y-113969367D01*
X154729271Y-113987262D01*
X154729543Y-113987358D01*
X154791093Y-114010493D01*
X154863657Y-114039965D01*
X154932057Y-114069597D01*
X154935294Y-114071062D01*
X155046702Y-114121626D01*
X155293399Y-113953160D01*
X155369077Y-113901803D01*
X155437631Y-113855889D01*
X155495088Y-113818030D01*
X155537476Y-113790837D01*
X155560825Y-113776921D01*
X155563042Y-113775889D01*
X155580010Y-113780484D01*
X155611701Y-113802655D01*
X155659352Y-113843447D01*
X155724198Y-113903905D01*
X155790397Y-113968227D01*
X155854214Y-114031612D01*
X155911329Y-114089451D01*
X155958305Y-114138175D01*
X155991703Y-114174210D01*
X156008085Y-114193984D01*
X156008694Y-114195002D01*
X156010505Y-114208572D01*
X156003683Y-114230733D01*
X155986540Y-114264478D01*
X155957393Y-114312800D01*
X155914555Y-114378692D01*
X155857448Y-114463517D01*
X155806766Y-114538177D01*
X155761461Y-114605140D01*
X155724150Y-114660516D01*
X155697452Y-114700420D01*
X155683985Y-114720962D01*
X155683137Y-114722356D01*
X155684781Y-114742038D01*
X155697245Y-114780293D01*
X155718048Y-114829889D01*
X155725462Y-114845728D01*
X155757814Y-114916290D01*
X155792328Y-114996353D01*
X155820365Y-115065629D01*
X155840568Y-115117045D01*
X155856615Y-115156119D01*
X155865888Y-115176541D01*
X155867041Y-115178114D01*
X155884096Y-115180721D01*
X155924298Y-115187863D01*
X155982302Y-115198523D01*
X156052763Y-115211685D01*
X156130335Y-115226333D01*
X156209672Y-115241449D01*
X156285431Y-115256018D01*
X156352264Y-115269022D01*
X156404828Y-115279445D01*
X156437776Y-115286270D01*
X156445857Y-115288199D01*
X156454205Y-115292962D01*
X156460506Y-115303718D01*
X156465045Y-115324098D01*
X156468104Y-115357734D01*
X156469967Y-115408255D01*
X156470918Y-115479292D01*
X156471240Y-115574476D01*
X156471257Y-115613492D01*
X156471257Y-115930799D01*
X156395057Y-115945839D01*
X156352663Y-115953995D01*
X156289400Y-115965899D01*
X156212962Y-115980116D01*
X156131043Y-115995210D01*
X156108400Y-115999355D01*
X156032806Y-116014053D01*
X155966953Y-116028505D01*
X155916366Y-116041375D01*
X155886574Y-116051322D01*
X155881612Y-116054287D01*
X155869426Y-116075283D01*
X155851953Y-116115967D01*
X155832577Y-116168322D01*
X155828734Y-116179600D01*
X155803339Y-116249523D01*
X155771817Y-116328418D01*
X155740969Y-116399266D01*
X155740817Y-116399595D01*
X155689447Y-116510733D01*
X155858399Y-116759253D01*
X156027352Y-117007772D01*
X155810429Y-117225058D01*
X155744819Y-117289726D01*
X155684979Y-117346733D01*
X155634267Y-117393033D01*
X155596046Y-117425584D01*
X155573675Y-117441343D01*
X155570466Y-117442343D01*
X155551626Y-117434469D01*
X155513180Y-117412578D01*
X155459330Y-117379267D01*
X155394276Y-117337131D01*
X155323940Y-117289943D01*
X155252555Y-117241810D01*
X155188908Y-117199928D01*
X155137041Y-117166871D01*
X155100995Y-117145218D01*
X155084867Y-117137543D01*
X155065189Y-117144037D01*
X155027875Y-117161150D01*
X154980621Y-117185326D01*
X154975612Y-117188013D01*
X154911977Y-117219927D01*
X154868341Y-117235579D01*
X154841202Y-117235745D01*
X154827057Y-117221204D01*
X154826975Y-117221000D01*
X154819905Y-117203779D01*
X154803042Y-117162899D01*
X154777695Y-117101525D01*
X154745171Y-117022819D01*
X154706778Y-116929947D01*
X154663822Y-116826072D01*
X154622222Y-116725502D01*
X154576504Y-116614516D01*
X154534526Y-116511703D01*
X154497548Y-116420215D01*
X154466827Y-116343201D01*
X154443622Y-116283815D01*
X154429190Y-116245209D01*
X154424743Y-116230800D01*
X154435896Y-116214272D01*
X154465069Y-116187930D01*
X154503971Y-116158887D01*
X154614757Y-116067039D01*
X154701351Y-115961759D01*
X154762716Y-115845266D01*
X154797815Y-115719776D01*
X154805608Y-115587507D01*
X154799943Y-115526457D01*
X154769078Y-115399795D01*
X154715920Y-115287941D01*
X154643767Y-115192001D01*
X154555917Y-115113076D01*
X154455665Y-115052270D01*
X154346310Y-115010687D01*
X154231147Y-114989428D01*
X154113475Y-114989599D01*
X153996590Y-115012301D01*
X153883789Y-115058638D01*
X153778369Y-115129713D01*
X153734368Y-115169911D01*
X153649979Y-115273129D01*
X153591222Y-115385925D01*
X153557704Y-115505010D01*
X153549035Y-115627095D01*
X153564823Y-115748893D01*
X153604678Y-115867116D01*
X153668207Y-115978475D01*
X153755021Y-116079684D01*
X153852029Y-116158887D01*
X153892437Y-116189162D01*
X153920982Y-116215219D01*
X153931257Y-116230825D01*
X153925877Y-116247843D01*
X153910575Y-116288500D01*
X153886612Y-116349642D01*
X153855244Y-116428119D01*
X153817732Y-116520780D01*
X153775333Y-116624472D01*
X153733663Y-116725526D01*
X153687690Y-116836607D01*
X153645107Y-116939541D01*
X153607221Y-117031165D01*
X153575340Y-117108316D01*
X153550771Y-117167831D01*
X153534820Y-117206544D01*
X153528910Y-117221000D01*
X153514948Y-117235685D01*
X153487940Y-117235642D01*
X153444413Y-117220099D01*
X153380890Y-117188284D01*
X153380388Y-117188013D01*
X153332560Y-117163323D01*
X153293897Y-117145338D01*
X153272095Y-117137614D01*
X153271133Y-117137543D01*
X153254721Y-117145378D01*
X153218487Y-117167165D01*
X153166474Y-117200328D01*
X153102725Y-117242291D01*
X153032060Y-117289943D01*
X152960116Y-117338191D01*
X152895274Y-117380151D01*
X152841735Y-117413227D01*
X152803697Y-117434821D01*
X152785533Y-117442343D01*
X152768808Y-117432457D01*
X152735180Y-117404826D01*
X152688010Y-117362495D01*
X152630658Y-117308505D01*
X152566484Y-117245899D01*
X152545497Y-117224983D01*
X152328499Y-117007623D01*
X152493668Y-116765220D01*
X152543864Y-116690781D01*
X152587919Y-116623972D01*
X152623362Y-116568665D01*
X152647719Y-116528729D01*
X152658522Y-116508036D01*
X152658838Y-116506563D01*
X152653143Y-116487058D01*
X152637826Y-116447822D01*
X152615537Y-116395430D01*
X152599893Y-116360355D01*
X152570641Y-116293201D01*
X152543094Y-116225358D01*
X152521737Y-116168034D01*
X152515935Y-116150572D01*
X152499452Y-116103938D01*
X152483340Y-116067905D01*
X152474490Y-116054287D01*
X152454960Y-116045952D01*
X152412334Y-116034137D01*
X152352145Y-116020181D01*
X152279922Y-116005422D01*
X152247600Y-115999355D01*
X152165522Y-115984273D01*
X152086795Y-115969669D01*
X152019109Y-115956980D01*
X151970160Y-115947642D01*
X151960943Y-115945839D01*
X151884743Y-115930799D01*
X151884743Y-115613492D01*
X151884914Y-115509154D01*
X151885616Y-115430213D01*
X151887134Y-115373038D01*
X151889749Y-115333999D01*
X151893746Y-115309465D01*
X151899409Y-115295805D01*
X151907020Y-115289389D01*
X151910143Y-115288199D01*
X151928978Y-115283980D01*
X151970588Y-115275562D01*
X152029630Y-115263961D01*
X152100757Y-115250195D01*
X152178625Y-115235280D01*
X152257887Y-115220232D01*
X152333198Y-115206069D01*
X152399213Y-115193806D01*
X152450587Y-115184461D01*
X152481975Y-115179050D01*
X152488959Y-115178114D01*
X152495285Y-115165596D01*
X152509290Y-115132246D01*
X152528355Y-115084377D01*
X152535634Y-115065629D01*
X152564996Y-114993195D01*
X152599571Y-114913170D01*
X152630537Y-114845728D01*
X152653323Y-114794159D01*
X152668482Y-114751785D01*
X152673542Y-114725834D01*
X152672736Y-114722356D01*
X152662041Y-114705936D01*
X152637620Y-114669417D01*
X152602095Y-114616687D01*
X152558087Y-114551635D01*
X152508217Y-114478151D01*
X152498356Y-114463645D01*
X152440492Y-114377704D01*
X152397956Y-114312261D01*
X152369054Y-114264304D01*
X152352090Y-114230820D01*
X152345367Y-114208795D01*
X152347190Y-114195217D01*
X152347236Y-114195131D01*
X152361586Y-114177297D01*
X152393323Y-114142817D01*
X152439010Y-114095268D01*
X152495204Y-114038222D01*
X152558468Y-113975255D01*
X152565602Y-113968227D01*
X152645330Y-113891020D01*
X152706857Y-113834330D01*
X152751421Y-113797110D01*
X152780257Y-113778315D01*
X152792958Y-113775889D01*
X152811494Y-113786471D01*
X152849961Y-113810916D01*
X152904386Y-113846612D01*
X152970798Y-113890947D01*
X153045225Y-113941311D01*
X153062601Y-113953160D01*
X153309297Y-114121626D01*
X153420706Y-114071062D01*
X153488457Y-114041595D01*
X153561183Y-114011959D01*
X153623703Y-113988330D01*
X153626457Y-113987358D01*
X153675360Y-113969457D01*
X153713057Y-113954320D01*
X153731425Y-113945210D01*
X153731456Y-113945184D01*
X153737285Y-113928717D01*
X153747192Y-113888219D01*
X153760195Y-113828242D01*
X153775309Y-113753340D01*
X153791552Y-113668064D01*
X153792881Y-113660875D01*
X153809175Y-113573014D01*
X153824133Y-113493260D01*
X153836791Y-113426681D01*
X153846186Y-113378347D01*
X153851354Y-113353325D01*
X153851444Y-113352943D01*
X153854589Y-113342299D01*
X153860704Y-113334262D01*
X153873453Y-113328467D01*
X153896500Y-113324547D01*
X153933509Y-113322135D01*
X153988144Y-113320865D01*
X154064067Y-113320371D01*
X154164944Y-113320286D01*
X154178000Y-113320286D01*
X154281910Y-113320348D01*
X154281910Y-113320348D01*
G37*
X154281910Y-113320348D02*
X154360454Y-113320778D01*
X154417298Y-113321942D01*
X154456105Y-113324207D01*
X154480538Y-113327940D01*
X154494262Y-113333506D01*
X154500940Y-113341273D01*
X154504236Y-113351605D01*
X154504556Y-113352943D01*
X154509562Y-113377079D01*
X154518829Y-113424701D01*
X154531392Y-113490741D01*
X154546287Y-113570128D01*
X154562551Y-113657796D01*
X154563119Y-113660875D01*
X154579410Y-113746789D01*
X154594652Y-113822696D01*
X154607861Y-113884045D01*
X154618054Y-113926282D01*
X154624248Y-113944855D01*
X154624543Y-113945184D01*
X154642788Y-113954253D01*
X154680405Y-113969367D01*
X154729271Y-113987262D01*
X154729543Y-113987358D01*
X154791093Y-114010493D01*
X154863657Y-114039965D01*
X154932057Y-114069597D01*
X154935294Y-114071062D01*
X155046702Y-114121626D01*
X155293399Y-113953160D01*
X155369077Y-113901803D01*
X155437631Y-113855889D01*
X155495088Y-113818030D01*
X155537476Y-113790837D01*
X155560825Y-113776921D01*
X155563042Y-113775889D01*
X155580010Y-113780484D01*
X155611701Y-113802655D01*
X155659352Y-113843447D01*
X155724198Y-113903905D01*
X155790397Y-113968227D01*
X155854214Y-114031612D01*
X155911329Y-114089451D01*
X155958305Y-114138175D01*
X155991703Y-114174210D01*
X156008085Y-114193984D01*
X156008694Y-114195002D01*
X156010505Y-114208572D01*
X156003683Y-114230733D01*
X155986540Y-114264478D01*
X155957393Y-114312800D01*
X155914555Y-114378692D01*
X155857448Y-114463517D01*
X155806766Y-114538177D01*
X155761461Y-114605140D01*
X155724150Y-114660516D01*
X155697452Y-114700420D01*
X155683985Y-114720962D01*
X155683137Y-114722356D01*
X155684781Y-114742038D01*
X155697245Y-114780293D01*
X155718048Y-114829889D01*
X155725462Y-114845728D01*
X155757814Y-114916290D01*
X155792328Y-114996353D01*
X155820365Y-115065629D01*
X155840568Y-115117045D01*
X155856615Y-115156119D01*
X155865888Y-115176541D01*
X155867041Y-115178114D01*
X155884096Y-115180721D01*
X155924298Y-115187863D01*
X155982302Y-115198523D01*
X156052763Y-115211685D01*
X156130335Y-115226333D01*
X156209672Y-115241449D01*
X156285431Y-115256018D01*
X156352264Y-115269022D01*
X156404828Y-115279445D01*
X156437776Y-115286270D01*
X156445857Y-115288199D01*
X156454205Y-115292962D01*
X156460506Y-115303718D01*
X156465045Y-115324098D01*
X156468104Y-115357734D01*
X156469967Y-115408255D01*
X156470918Y-115479292D01*
X156471240Y-115574476D01*
X156471257Y-115613492D01*
X156471257Y-115930799D01*
X156395057Y-115945839D01*
X156352663Y-115953995D01*
X156289400Y-115965899D01*
X156212962Y-115980116D01*
X156131043Y-115995210D01*
X156108400Y-115999355D01*
X156032806Y-116014053D01*
X155966953Y-116028505D01*
X155916366Y-116041375D01*
X155886574Y-116051322D01*
X155881612Y-116054287D01*
X155869426Y-116075283D01*
X155851953Y-116115967D01*
X155832577Y-116168322D01*
X155828734Y-116179600D01*
X155803339Y-116249523D01*
X155771817Y-116328418D01*
X155740969Y-116399266D01*
X155740817Y-116399595D01*
X155689447Y-116510733D01*
X155858399Y-116759253D01*
X156027352Y-117007772D01*
X155810429Y-117225058D01*
X155744819Y-117289726D01*
X155684979Y-117346733D01*
X155634267Y-117393033D01*
X155596046Y-117425584D01*
X155573675Y-117441343D01*
X155570466Y-117442343D01*
X155551626Y-117434469D01*
X155513180Y-117412578D01*
X155459330Y-117379267D01*
X155394276Y-117337131D01*
X155323940Y-117289943D01*
X155252555Y-117241810D01*
X155188908Y-117199928D01*
X155137041Y-117166871D01*
X155100995Y-117145218D01*
X155084867Y-117137543D01*
X155065189Y-117144037D01*
X155027875Y-117161150D01*
X154980621Y-117185326D01*
X154975612Y-117188013D01*
X154911977Y-117219927D01*
X154868341Y-117235579D01*
X154841202Y-117235745D01*
X154827057Y-117221204D01*
X154826975Y-117221000D01*
X154819905Y-117203779D01*
X154803042Y-117162899D01*
X154777695Y-117101525D01*
X154745171Y-117022819D01*
X154706778Y-116929947D01*
X154663822Y-116826072D01*
X154622222Y-116725502D01*
X154576504Y-116614516D01*
X154534526Y-116511703D01*
X154497548Y-116420215D01*
X154466827Y-116343201D01*
X154443622Y-116283815D01*
X154429190Y-116245209D01*
X154424743Y-116230800D01*
X154435896Y-116214272D01*
X154465069Y-116187930D01*
X154503971Y-116158887D01*
X154614757Y-116067039D01*
X154701351Y-115961759D01*
X154762716Y-115845266D01*
X154797815Y-115719776D01*
X154805608Y-115587507D01*
X154799943Y-115526457D01*
X154769078Y-115399795D01*
X154715920Y-115287941D01*
X154643767Y-115192001D01*
X154555917Y-115113076D01*
X154455665Y-115052270D01*
X154346310Y-115010687D01*
X154231147Y-114989428D01*
X154113475Y-114989599D01*
X153996590Y-115012301D01*
X153883789Y-115058638D01*
X153778369Y-115129713D01*
X153734368Y-115169911D01*
X153649979Y-115273129D01*
X153591222Y-115385925D01*
X153557704Y-115505010D01*
X153549035Y-115627095D01*
X153564823Y-115748893D01*
X153604678Y-115867116D01*
X153668207Y-115978475D01*
X153755021Y-116079684D01*
X153852029Y-116158887D01*
X153892437Y-116189162D01*
X153920982Y-116215219D01*
X153931257Y-116230825D01*
X153925877Y-116247843D01*
X153910575Y-116288500D01*
X153886612Y-116349642D01*
X153855244Y-116428119D01*
X153817732Y-116520780D01*
X153775333Y-116624472D01*
X153733663Y-116725526D01*
X153687690Y-116836607D01*
X153645107Y-116939541D01*
X153607221Y-117031165D01*
X153575340Y-117108316D01*
X153550771Y-117167831D01*
X153534820Y-117206544D01*
X153528910Y-117221000D01*
X153514948Y-117235685D01*
X153487940Y-117235642D01*
X153444413Y-117220099D01*
X153380890Y-117188284D01*
X153380388Y-117188013D01*
X153332560Y-117163323D01*
X153293897Y-117145338D01*
X153272095Y-117137614D01*
X153271133Y-117137543D01*
X153254721Y-117145378D01*
X153218487Y-117167165D01*
X153166474Y-117200328D01*
X153102725Y-117242291D01*
X153032060Y-117289943D01*
X152960116Y-117338191D01*
X152895274Y-117380151D01*
X152841735Y-117413227D01*
X152803697Y-117434821D01*
X152785533Y-117442343D01*
X152768808Y-117432457D01*
X152735180Y-117404826D01*
X152688010Y-117362495D01*
X152630658Y-117308505D01*
X152566484Y-117245899D01*
X152545497Y-117224983D01*
X152328499Y-117007623D01*
X152493668Y-116765220D01*
X152543864Y-116690781D01*
X152587919Y-116623972D01*
X152623362Y-116568665D01*
X152647719Y-116528729D01*
X152658522Y-116508036D01*
X152658838Y-116506563D01*
X152653143Y-116487058D01*
X152637826Y-116447822D01*
X152615537Y-116395430D01*
X152599893Y-116360355D01*
X152570641Y-116293201D01*
X152543094Y-116225358D01*
X152521737Y-116168034D01*
X152515935Y-116150572D01*
X152499452Y-116103938D01*
X152483340Y-116067905D01*
X152474490Y-116054287D01*
X152454960Y-116045952D01*
X152412334Y-116034137D01*
X152352145Y-116020181D01*
X152279922Y-116005422D01*
X152247600Y-115999355D01*
X152165522Y-115984273D01*
X152086795Y-115969669D01*
X152019109Y-115956980D01*
X151970160Y-115947642D01*
X151960943Y-115945839D01*
X151884743Y-115930799D01*
X151884743Y-115613492D01*
X151884914Y-115509154D01*
X151885616Y-115430213D01*
X151887134Y-115373038D01*
X151889749Y-115333999D01*
X151893746Y-115309465D01*
X151899409Y-115295805D01*
X151907020Y-115289389D01*
X151910143Y-115288199D01*
X151928978Y-115283980D01*
X151970588Y-115275562D01*
X152029630Y-115263961D01*
X152100757Y-115250195D01*
X152178625Y-115235280D01*
X152257887Y-115220232D01*
X152333198Y-115206069D01*
X152399213Y-115193806D01*
X152450587Y-115184461D01*
X152481975Y-115179050D01*
X152488959Y-115178114D01*
X152495285Y-115165596D01*
X152509290Y-115132246D01*
X152528355Y-115084377D01*
X152535634Y-115065629D01*
X152564996Y-114993195D01*
X152599571Y-114913170D01*
X152630537Y-114845728D01*
X152653323Y-114794159D01*
X152668482Y-114751785D01*
X152673542Y-114725834D01*
X152672736Y-114722356D01*
X152662041Y-114705936D01*
X152637620Y-114669417D01*
X152602095Y-114616687D01*
X152558087Y-114551635D01*
X152508217Y-114478151D01*
X152498356Y-114463645D01*
X152440492Y-114377704D01*
X152397956Y-114312261D01*
X152369054Y-114264304D01*
X152352090Y-114230820D01*
X152345367Y-114208795D01*
X152347190Y-114195217D01*
X152347236Y-114195131D01*
X152361586Y-114177297D01*
X152393323Y-114142817D01*
X152439010Y-114095268D01*
X152495204Y-114038222D01*
X152558468Y-113975255D01*
X152565602Y-113968227D01*
X152645330Y-113891020D01*
X152706857Y-113834330D01*
X152751421Y-113797110D01*
X152780257Y-113778315D01*
X152792958Y-113775889D01*
X152811494Y-113786471D01*
X152849961Y-113810916D01*
X152904386Y-113846612D01*
X152970798Y-113890947D01*
X153045225Y-113941311D01*
X153062601Y-113953160D01*
X153309297Y-114121626D01*
X153420706Y-114071062D01*
X153488457Y-114041595D01*
X153561183Y-114011959D01*
X153623703Y-113988330D01*
X153626457Y-113987358D01*
X153675360Y-113969457D01*
X153713057Y-113954320D01*
X153731425Y-113945210D01*
X153731456Y-113945184D01*
X153737285Y-113928717D01*
X153747192Y-113888219D01*
X153760195Y-113828242D01*
X153775309Y-113753340D01*
X153791552Y-113668064D01*
X153792881Y-113660875D01*
X153809175Y-113573014D01*
X153824133Y-113493260D01*
X153836791Y-113426681D01*
X153846186Y-113378347D01*
X153851354Y-113353325D01*
X153851444Y-113352943D01*
X153854589Y-113342299D01*
X153860704Y-113334262D01*
X153873453Y-113328467D01*
X153896500Y-113324547D01*
X153933509Y-113322135D01*
X153988144Y-113320865D01*
X154064067Y-113320371D01*
X154164944Y-113320286D01*
X154178000Y-113320286D01*
X154281910Y-113320348D01*
D14*
X133366000Y-100672000D02*
X128866000Y-100672000D01*
X134616000Y-104672000D02*
X134616000Y-103172000D01*
X128866000Y-107172000D02*
X133366000Y-107172000D01*
X127616000Y-103172000D02*
X127616000Y-104672000D01*
D16*
X133945334Y-115927143D02*
X133897715Y-115974762D01*
X133754858Y-116022381D01*
X133659620Y-116022381D01*
X133516762Y-115974762D01*
X133421524Y-115879524D01*
X133373905Y-115784286D01*
X133326286Y-115593810D01*
X133326286Y-115450952D01*
X133373905Y-115260476D01*
X133421524Y-115165238D01*
X133516762Y-115070000D01*
X133659620Y-115022381D01*
X133754858Y-115022381D01*
X133897715Y-115070000D01*
X133945334Y-115117619D01*
X134326286Y-115117619D02*
X134373905Y-115070000D01*
X134469143Y-115022381D01*
X134707239Y-115022381D01*
X134802477Y-115070000D01*
X134850096Y-115117619D01*
X134897715Y-115212857D01*
X134897715Y-115308095D01*
X134850096Y-115450952D01*
X134278667Y-116022381D01*
X134897715Y-116022381D01*
X130341714Y-112490095D02*
X131008381Y-112490095D01*
X129960762Y-112728191D02*
X130675048Y-112966286D01*
X130675048Y-112347238D01*
X130008381Y-112061524D02*
X130008381Y-111394857D01*
X131008381Y-111823429D01*
X130341714Y-111013905D02*
X131341714Y-111013905D01*
X130865524Y-110537714D02*
X130960762Y-110490095D01*
X131008381Y-110394857D01*
X130865524Y-111013905D02*
X130960762Y-110966286D01*
X131008381Y-110871048D01*
X131008381Y-110680571D01*
X130960762Y-110585333D01*
X130865524Y-110537714D01*
X130341714Y-110537714D01*
X130484571Y-109632952D02*
X130484571Y-109966286D01*
X131008381Y-109966286D02*
X130008381Y-109966286D01*
X130008381Y-109490095D01*
X129992381Y-86526666D02*
X129516190Y-86860000D01*
X129992381Y-87098095D02*
X128992381Y-87098095D01*
X128992381Y-86717142D01*
X129040000Y-86621904D01*
X129087619Y-86574285D01*
X129182857Y-86526666D01*
X129325714Y-86526666D01*
X129420952Y-86574285D01*
X129468571Y-86621904D01*
X129516190Y-86717142D01*
X129516190Y-87098095D01*
X129325714Y-85669523D02*
X129992381Y-85669523D01*
X128944762Y-85907619D02*
X129659048Y-86145714D01*
X129659048Y-85526666D01*
X129325714Y-93567142D02*
X129992381Y-93567142D01*
X128944762Y-93805238D02*
X129659048Y-94043333D01*
X129659048Y-93424285D01*
X128992381Y-93138571D02*
X128992381Y-92471904D01*
X129992381Y-92900476D01*
X129992381Y-92138571D02*
X129992381Y-91900476D01*
X129801905Y-91900476D01*
X129754286Y-91995714D01*
X129659048Y-92090952D01*
X129516190Y-92138571D01*
X129278095Y-92138571D01*
X129135238Y-92090952D01*
X129040000Y-91995714D01*
X128992381Y-91852857D01*
X128992381Y-91662380D01*
X129040000Y-91519523D01*
X129135238Y-91424285D01*
X129278095Y-91376666D01*
X129516190Y-91376666D01*
X129659048Y-91424285D01*
X129754286Y-91519523D01*
X129801905Y-91614761D01*
X129992381Y-91614761D01*
X129992381Y-91376666D01*
X136866381Y-118363905D02*
X137675905Y-118363905D01*
X137771143Y-118316286D01*
X137818762Y-118268667D01*
X137866381Y-118173429D01*
X137866381Y-117982952D01*
X137818762Y-117887714D01*
X137771143Y-117840095D01*
X137675905Y-117792476D01*
X136866381Y-117792476D01*
X137866381Y-116792476D02*
X137866381Y-117363905D01*
X137866381Y-117078191D02*
X136866381Y-117078191D01*
X137009238Y-117173429D01*
X137104476Y-117268667D01*
X137152095Y-117363905D01*
X138819524Y-119682381D02*
X138819524Y-118682381D01*
X139200477Y-118682381D01*
X139295715Y-118730000D01*
X139343334Y-118777619D01*
X139390953Y-118872857D01*
X139390953Y-119015714D01*
X139343334Y-119110952D01*
X139295715Y-119158571D01*
X139200477Y-119206190D01*
X138819524Y-119206190D01*
X139819524Y-119682381D02*
X139819524Y-118682381D01*
X140867143Y-119587143D02*
X140819524Y-119634762D01*
X140676667Y-119682381D01*
X140581429Y-119682381D01*
X140438571Y-119634762D01*
X140343333Y-119539524D01*
X140295714Y-119444286D01*
X140248095Y-119253810D01*
X140248095Y-119110952D01*
X140295714Y-118920476D01*
X140343333Y-118825238D01*
X140438571Y-118730000D01*
X140581429Y-118682381D01*
X140676667Y-118682381D01*
X140819524Y-118730000D01*
X140867143Y-118777619D01*
X141819524Y-119682381D02*
X141248095Y-119682381D01*
X141533809Y-119682381D02*
X141533809Y-118682381D01*
X141438571Y-118825238D01*
X141343333Y-118920476D01*
X141248095Y-118968095D01*
X142200476Y-118777619D02*
X142248095Y-118730000D01*
X142343333Y-118682381D01*
X142581429Y-118682381D01*
X142676667Y-118730000D01*
X142724286Y-118777619D01*
X142771905Y-118872857D01*
X142771905Y-118968095D01*
X142724286Y-119110952D01*
X142152857Y-119682381D01*
X142771905Y-119682381D01*
X143676667Y-119682381D02*
X143200476Y-119682381D01*
X143200476Y-118682381D01*
X144343334Y-119158571D02*
X144010000Y-119158571D01*
X144010000Y-119682381D02*
X144010000Y-118682381D01*
X144486191Y-118682381D01*
X145390953Y-119682381D02*
X144819524Y-119682381D01*
X145105238Y-119682381D02*
X145105238Y-118682381D01*
X145010000Y-118825238D01*
X144914762Y-118920476D01*
X144819524Y-118968095D01*
X146295715Y-118682381D02*
X145819524Y-118682381D01*
X145771905Y-119158571D01*
X145819524Y-119110952D01*
X145914762Y-119063333D01*
X146152858Y-119063333D01*
X146248096Y-119110952D01*
X146295715Y-119158571D01*
X146343334Y-119253810D01*
X146343334Y-119491905D01*
X146295715Y-119587143D01*
X146248096Y-119634762D01*
X146152858Y-119682381D01*
X145914762Y-119682381D01*
X145819524Y-119634762D01*
X145771905Y-119587143D01*
X146962381Y-118682381D02*
X147057620Y-118682381D01*
X147152858Y-118730000D01*
X147200477Y-118777619D01*
X147248096Y-118872857D01*
X147295715Y-119063333D01*
X147295715Y-119301429D01*
X147248096Y-119491905D01*
X147200477Y-119587143D01*
X147152858Y-119634762D01*
X147057620Y-119682381D01*
X146962381Y-119682381D01*
X146867143Y-119634762D01*
X146819524Y-119587143D01*
X146771905Y-119491905D01*
X146724286Y-119301429D01*
X146724286Y-119063333D01*
X146771905Y-118872857D01*
X146819524Y-118777619D01*
X146867143Y-118730000D01*
X146962381Y-118682381D01*
X148248096Y-119682381D02*
X147676667Y-119682381D01*
X147962381Y-119682381D02*
X147962381Y-118682381D01*
X147867143Y-118825238D01*
X147771905Y-118920476D01*
X147676667Y-118968095D01*
X147169143Y-106338666D02*
X147216762Y-106386285D01*
X147264381Y-106529142D01*
X147264381Y-106624380D01*
X147216762Y-106767238D01*
X147121524Y-106862476D01*
X147026286Y-106910095D01*
X146835810Y-106957714D01*
X146692952Y-106957714D01*
X146502476Y-106910095D01*
X146407238Y-106862476D01*
X146312000Y-106767238D01*
X146264381Y-106624380D01*
X146264381Y-106529142D01*
X146312000Y-106386285D01*
X146359619Y-106338666D01*
X147264381Y-105386285D02*
X147264381Y-105957714D01*
X147264381Y-105672000D02*
X146264381Y-105672000D01*
X146407238Y-105767238D01*
X146502476Y-105862476D01*
X146550095Y-105957714D01*
X143319714Y-104100381D02*
X143414953Y-104100381D01*
X143510191Y-104148000D01*
X143557810Y-104195619D01*
X143605429Y-104290857D01*
X143653048Y-104481333D01*
X143653048Y-104719429D01*
X143605429Y-104909905D01*
X143557810Y-105005143D01*
X143510191Y-105052762D01*
X143414953Y-105100381D01*
X143319714Y-105100381D01*
X143224476Y-105052762D01*
X143176857Y-105005143D01*
X143129238Y-104909905D01*
X143081619Y-104719429D01*
X143081619Y-104481333D01*
X143129238Y-104290857D01*
X143176857Y-104195619D01*
X143224476Y-104148000D01*
X143319714Y-104100381D01*
X144081619Y-105005143D02*
X144129238Y-105052762D01*
X144081619Y-105100381D01*
X144034000Y-105052762D01*
X144081619Y-105005143D01*
X144081619Y-105100381D01*
X145081619Y-105100381D02*
X144510190Y-105100381D01*
X144795904Y-105100381D02*
X144795904Y-104100381D01*
X144700666Y-104243238D01*
X144605428Y-104338476D01*
X144510190Y-104386095D01*
X145510190Y-104433714D02*
X145510190Y-105433714D01*
X145986381Y-104957524D02*
X146034000Y-105052762D01*
X146129238Y-105100381D01*
X145510190Y-104957524D02*
X145557809Y-105052762D01*
X145653047Y-105100381D01*
X145843524Y-105100381D01*
X145938762Y-105052762D01*
X145986381Y-104957524D01*
X145986381Y-104433714D01*
X146891143Y-104576571D02*
X146557809Y-104576571D01*
X146557809Y-105100381D02*
X146557809Y-104100381D01*
X147034000Y-104100381D01*
X156157705Y-78244821D02*
X156157705Y-77244821D01*
X156395800Y-77244821D01*
X156538658Y-77292440D01*
X156633896Y-77387678D01*
X156681515Y-77482916D01*
X156729134Y-77673392D01*
X156729134Y-77816250D01*
X156681515Y-78006726D01*
X156633896Y-78101964D01*
X156538658Y-78197202D01*
X156395800Y-78244821D01*
X156157705Y-78244821D01*
X157681515Y-78244821D02*
X157110086Y-78244821D01*
X157395800Y-78244821D02*
X157395800Y-77244821D01*
X157300562Y-77387678D01*
X157205324Y-77482916D01*
X157110086Y-77530535D01*
X159980477Y-79303571D02*
X160123334Y-79351190D01*
X160170953Y-79398810D01*
X160218572Y-79494048D01*
X160218572Y-79636905D01*
X160170953Y-79732143D01*
X160123334Y-79779762D01*
X160028096Y-79827381D01*
X159647143Y-79827381D01*
X159647143Y-78827381D01*
X159980477Y-78827381D01*
X160075715Y-78875000D01*
X160123334Y-78922619D01*
X160170953Y-79017857D01*
X160170953Y-79113095D01*
X160123334Y-79208333D01*
X160075715Y-79255952D01*
X159980477Y-79303571D01*
X159647143Y-79303571D01*
X161123334Y-79827381D02*
X160647143Y-79827381D01*
X160647143Y-78827381D01*
X161456667Y-78827381D02*
X161456667Y-79636905D01*
X161504286Y-79732143D01*
X161551905Y-79779762D01*
X161647143Y-79827381D01*
X161837620Y-79827381D01*
X161932858Y-79779762D01*
X161980477Y-79732143D01*
X162028096Y-79636905D01*
X162028096Y-78827381D01*
X162504286Y-79303571D02*
X162837620Y-79303571D01*
X162980477Y-79827381D02*
X162504286Y-79827381D01*
X162504286Y-78827381D01*
X162980477Y-78827381D01*
X144377185Y-80012661D02*
X144377185Y-79012661D01*
X144615280Y-79012661D01*
X144758138Y-79060280D01*
X144853376Y-79155518D01*
X144900995Y-79250756D01*
X144948614Y-79441232D01*
X144948614Y-79584090D01*
X144900995Y-79774566D01*
X144853376Y-79869804D01*
X144758138Y-79965042D01*
X144615280Y-80012661D01*
X144377185Y-80012661D01*
X145329566Y-79107899D02*
X145377185Y-79060280D01*
X145472423Y-79012661D01*
X145710519Y-79012661D01*
X145805757Y-79060280D01*
X145853376Y-79107899D01*
X145900995Y-79203137D01*
X145900995Y-79298375D01*
X145853376Y-79441232D01*
X145281947Y-80012661D01*
X145900995Y-80012661D01*
X141232000Y-81930666D02*
X141184381Y-82025904D01*
X141184381Y-82168761D01*
X141232000Y-82311619D01*
X141327238Y-82406857D01*
X141422476Y-82454476D01*
X141612952Y-82502095D01*
X141755810Y-82502095D01*
X141946286Y-82454476D01*
X142041524Y-82406857D01*
X142136762Y-82311619D01*
X142184381Y-82168761D01*
X142184381Y-82073523D01*
X142136762Y-81930666D01*
X142089143Y-81883047D01*
X141755810Y-81883047D01*
X141755810Y-82073523D01*
X142184381Y-80883047D02*
X141708190Y-81216381D01*
X142184381Y-81454476D02*
X141184381Y-81454476D01*
X141184381Y-81073523D01*
X141232000Y-80978285D01*
X141279619Y-80930666D01*
X141374857Y-80883047D01*
X141517714Y-80883047D01*
X141612952Y-80930666D01*
X141660571Y-80978285D01*
X141708190Y-81073523D01*
X141708190Y-81454476D01*
X141660571Y-80454476D02*
X141660571Y-80121142D01*
X142184381Y-79978285D02*
X142184381Y-80454476D01*
X141184381Y-80454476D01*
X141184381Y-79978285D01*
X141660571Y-79549714D02*
X141660571Y-79216380D01*
X142184381Y-79073523D02*
X142184381Y-79549714D01*
X141184381Y-79549714D01*
X141184381Y-79073523D01*
X142184381Y-78644952D02*
X141184381Y-78644952D01*
X142184381Y-78073523D01*
X141184381Y-78073523D01*
X134598185Y-87612341D02*
X134598185Y-86612341D01*
X134836280Y-86612341D01*
X134979138Y-86659960D01*
X135074376Y-86755198D01*
X135121995Y-86850436D01*
X135169614Y-87040912D01*
X135169614Y-87183770D01*
X135121995Y-87374246D01*
X135074376Y-87469484D01*
X134979138Y-87564722D01*
X134836280Y-87612341D01*
X134598185Y-87612341D01*
X135502947Y-86612341D02*
X136121995Y-86612341D01*
X135788661Y-86993293D01*
X135931519Y-86993293D01*
X136026757Y-87040912D01*
X136074376Y-87088531D01*
X136121995Y-87183770D01*
X136121995Y-87421865D01*
X136074376Y-87517103D01*
X136026757Y-87564722D01*
X135931519Y-87612341D01*
X135645804Y-87612341D01*
X135550566Y-87564722D01*
X135502947Y-87517103D01*
X139041190Y-93162143D02*
X139517381Y-93162143D01*
X138517381Y-93495476D02*
X139041190Y-93162143D01*
X138517381Y-92828809D01*
X138993571Y-92495476D02*
X138993571Y-92162142D01*
X139517381Y-92019285D02*
X139517381Y-92495476D01*
X138517381Y-92495476D01*
X138517381Y-92019285D01*
X139517381Y-91114523D02*
X139517381Y-91590714D01*
X138517381Y-91590714D01*
X139517381Y-90304999D02*
X139517381Y-90781190D01*
X138517381Y-90781190D01*
X138517381Y-89781190D02*
X138517381Y-89590713D01*
X138565000Y-89495475D01*
X138660238Y-89400237D01*
X138850714Y-89352618D01*
X139184048Y-89352618D01*
X139374524Y-89400237D01*
X139469762Y-89495475D01*
X139517381Y-89590713D01*
X139517381Y-89781190D01*
X139469762Y-89876428D01*
X139374524Y-89971666D01*
X139184048Y-90019285D01*
X138850714Y-90019285D01*
X138660238Y-89971666D01*
X138565000Y-89876428D01*
X138517381Y-89781190D01*
X138517381Y-89019285D02*
X139517381Y-88781190D01*
X138803095Y-88590713D01*
X139517381Y-88400237D01*
X138517381Y-88162142D01*
X138453905Y-97447221D02*
X138453905Y-96447221D01*
X138692000Y-96447221D01*
X138834858Y-96494840D01*
X138930096Y-96590078D01*
X138977715Y-96685316D01*
X139025334Y-96875792D01*
X139025334Y-97018650D01*
X138977715Y-97209126D01*
X138930096Y-97304364D01*
X138834858Y-97399602D01*
X138692000Y-97447221D01*
X138453905Y-97447221D01*
X139882477Y-96780554D02*
X139882477Y-97447221D01*
X139644381Y-96399602D02*
X139406286Y-97113888D01*
X140025334Y-97113888D01*
X136692000Y-104100381D02*
X136882477Y-104100381D01*
X136977715Y-104148000D01*
X137072953Y-104243238D01*
X137120572Y-104433714D01*
X137120572Y-104767048D01*
X137072953Y-104957524D01*
X136977715Y-105052762D01*
X136882477Y-105100381D01*
X136692000Y-105100381D01*
X136596762Y-105052762D01*
X136501524Y-104957524D01*
X136453905Y-104767048D01*
X136453905Y-104433714D01*
X136501524Y-104243238D01*
X136596762Y-104148000D01*
X136692000Y-104100381D01*
X138120572Y-105100381D02*
X137787238Y-104624190D01*
X137549143Y-105100381D02*
X137549143Y-104100381D01*
X137930096Y-104100381D01*
X138025334Y-104148000D01*
X138072953Y-104195619D01*
X138120572Y-104290857D01*
X138120572Y-104433714D01*
X138072953Y-104528952D01*
X138025334Y-104576571D01*
X137930096Y-104624190D01*
X137549143Y-104624190D01*
X138501524Y-104814667D02*
X138977715Y-104814667D01*
X138406286Y-105100381D02*
X138739619Y-104100381D01*
X139072953Y-105100381D01*
X139406286Y-105100381D02*
X139406286Y-104100381D01*
X139977715Y-105100381D01*
X139977715Y-104100381D01*
X140977715Y-104148000D02*
X140882477Y-104100381D01*
X140739620Y-104100381D01*
X140596762Y-104148000D01*
X140501524Y-104243238D01*
X140453905Y-104338476D01*
X140406286Y-104528952D01*
X140406286Y-104671810D01*
X140453905Y-104862286D01*
X140501524Y-104957524D01*
X140596762Y-105052762D01*
X140739620Y-105100381D01*
X140834858Y-105100381D01*
X140977715Y-105052762D01*
X141025334Y-105005143D01*
X141025334Y-104671810D01*
X140834858Y-104671810D01*
X141453905Y-104576571D02*
X141787239Y-104576571D01*
X141930096Y-105100381D02*
X141453905Y-105100381D01*
X141453905Y-104100381D01*
X141930096Y-104100381D01*
X171902381Y-88431666D02*
X171426190Y-88765000D01*
X171902381Y-89003095D02*
X170902381Y-89003095D01*
X170902381Y-88622142D01*
X170950000Y-88526904D01*
X170997619Y-88479285D01*
X171092857Y-88431666D01*
X171235714Y-88431666D01*
X171330952Y-88479285D01*
X171378571Y-88526904D01*
X171426190Y-88622142D01*
X171426190Y-89003095D01*
X171902381Y-87479285D02*
X171902381Y-88050714D01*
X171902381Y-87765000D02*
X170902381Y-87765000D01*
X171045238Y-87860238D01*
X171140476Y-87955476D01*
X171188095Y-88050714D01*
X170902381Y-95234048D02*
X170902381Y-95138809D01*
X170950000Y-95043571D01*
X170997619Y-94995952D01*
X171092857Y-94948333D01*
X171283333Y-94900714D01*
X171521429Y-94900714D01*
X171711905Y-94948333D01*
X171807143Y-94995952D01*
X171854762Y-95043571D01*
X171902381Y-95138809D01*
X171902381Y-95234048D01*
X171854762Y-95329286D01*
X171807143Y-95376905D01*
X171711905Y-95424524D01*
X171521429Y-95472143D01*
X171283333Y-95472143D01*
X171092857Y-95424524D01*
X170997619Y-95376905D01*
X170950000Y-95329286D01*
X170902381Y-95234048D01*
X171902381Y-94519762D02*
X171902381Y-94281667D01*
X171711905Y-94281667D01*
X171664286Y-94376905D01*
X171569048Y-94472143D01*
X171426190Y-94519762D01*
X171188095Y-94519762D01*
X171045238Y-94472143D01*
X170950000Y-94376905D01*
X170902381Y-94234048D01*
X170902381Y-94043571D01*
X170950000Y-93900714D01*
X171045238Y-93805476D01*
X171188095Y-93757857D01*
X171426190Y-93757857D01*
X171569048Y-93805476D01*
X171664286Y-93900714D01*
X171711905Y-93995952D01*
X171902381Y-93995952D01*
X171902381Y-93757857D01*
X169362381Y-86526666D02*
X168886190Y-86860000D01*
X169362381Y-87098095D02*
X168362381Y-87098095D01*
X168362381Y-86717142D01*
X168410000Y-86621904D01*
X168457619Y-86574285D01*
X168552857Y-86526666D01*
X168695714Y-86526666D01*
X168790952Y-86574285D01*
X168838571Y-86621904D01*
X168886190Y-86717142D01*
X168886190Y-87098095D01*
X168457619Y-86145714D02*
X168410000Y-86098095D01*
X168362381Y-86002857D01*
X168362381Y-85764761D01*
X168410000Y-85669523D01*
X168457619Y-85621904D01*
X168552857Y-85574285D01*
X168648095Y-85574285D01*
X168790952Y-85621904D01*
X169362381Y-86193333D01*
X169362381Y-85574285D01*
X168695714Y-93567142D02*
X169362381Y-93567142D01*
X168314762Y-93805238D02*
X169029048Y-94043333D01*
X169029048Y-93424285D01*
X168362381Y-93138571D02*
X168362381Y-92471904D01*
X169362381Y-92900476D01*
X169362381Y-92138571D02*
X169362381Y-91900476D01*
X169171905Y-91900476D01*
X169124286Y-91995714D01*
X169029048Y-92090952D01*
X168886190Y-92138571D01*
X168648095Y-92138571D01*
X168505238Y-92090952D01*
X168410000Y-91995714D01*
X168362381Y-91852857D01*
X168362381Y-91662380D01*
X168410000Y-91519523D01*
X168505238Y-91424285D01*
X168648095Y-91376666D01*
X168886190Y-91376666D01*
X169029048Y-91424285D01*
X169124286Y-91519523D01*
X169171905Y-91614761D01*
X169362381Y-91614761D01*
X169362381Y-91376666D01*
X127452381Y-89066666D02*
X126976190Y-89400000D01*
X127452381Y-89638095D02*
X126452381Y-89638095D01*
X126452381Y-89257142D01*
X126500000Y-89161904D01*
X126547619Y-89114285D01*
X126642857Y-89066666D01*
X126785714Y-89066666D01*
X126880952Y-89114285D01*
X126928571Y-89161904D01*
X126976190Y-89257142D01*
X126976190Y-89638095D01*
X126452381Y-88733333D02*
X126452381Y-88114285D01*
X126833333Y-88447619D01*
X126833333Y-88304761D01*
X126880952Y-88209523D01*
X126928571Y-88161904D01*
X127023810Y-88114285D01*
X127261905Y-88114285D01*
X127357143Y-88161904D01*
X127404762Y-88209523D01*
X127452381Y-88304761D01*
X127452381Y-88590476D01*
X127404762Y-88685714D01*
X127357143Y-88733333D01*
X126785714Y-96107142D02*
X127452381Y-96107142D01*
X126404762Y-96345238D02*
X127119048Y-96583333D01*
X127119048Y-95964285D01*
X126452381Y-95678571D02*
X126452381Y-95011904D01*
X127452381Y-95440476D01*
X127452381Y-94678571D02*
X127452381Y-94440476D01*
X127261905Y-94440476D01*
X127214286Y-94535714D01*
X127119048Y-94630952D01*
X126976190Y-94678571D01*
X126738095Y-94678571D01*
X126595238Y-94630952D01*
X126500000Y-94535714D01*
X126452381Y-94392857D01*
X126452381Y-94202380D01*
X126500000Y-94059523D01*
X126595238Y-93964285D01*
X126738095Y-93916666D01*
X126976190Y-93916666D01*
X127119048Y-93964285D01*
X127214286Y-94059523D01*
X127261905Y-94154761D01*
X127452381Y-94154761D01*
X127452381Y-93916666D01*
X139997381Y-75898333D02*
X140711667Y-75898333D01*
X140854524Y-75945953D01*
X140949762Y-76041191D01*
X140997381Y-76184048D01*
X140997381Y-76279286D01*
X140997381Y-74898333D02*
X140997381Y-75469762D01*
X140997381Y-75184048D02*
X139997381Y-75184048D01*
X140140238Y-75279286D01*
X140235476Y-75374524D01*
X140283095Y-75469762D01*
X158357381Y-77041190D02*
X157357381Y-77041190D01*
X158262143Y-75993571D02*
X158309762Y-76041190D01*
X158357381Y-76184047D01*
X158357381Y-76279285D01*
X158309762Y-76422143D01*
X158214524Y-76517381D01*
X158119286Y-76565000D01*
X157928810Y-76612619D01*
X157785952Y-76612619D01*
X157595476Y-76565000D01*
X157500238Y-76517381D01*
X157405000Y-76422143D01*
X157357381Y-76279285D01*
X157357381Y-76184047D01*
X157405000Y-76041190D01*
X157452619Y-75993571D01*
X158309762Y-75612619D02*
X158357381Y-75469762D01*
X158357381Y-75231666D01*
X158309762Y-75136428D01*
X158262143Y-75088809D01*
X158166905Y-75041190D01*
X158071667Y-75041190D01*
X157976429Y-75088809D01*
X157928810Y-75136428D01*
X157881190Y-75231666D01*
X157833571Y-75422143D01*
X157785952Y-75517381D01*
X157738333Y-75565000D01*
X157643095Y-75612619D01*
X157547857Y-75612619D01*
X157452619Y-75565000D01*
X157405000Y-75517381D01*
X157357381Y-75422143D01*
X157357381Y-75184047D01*
X157405000Y-75041190D01*
X158357381Y-74612619D02*
X157357381Y-74612619D01*
X157357381Y-74231666D01*
X157405000Y-74136428D01*
X157452619Y-74088809D01*
X157547857Y-74041190D01*
X157690714Y-74041190D01*
X157785952Y-74088809D01*
X157833571Y-74136428D01*
X157881190Y-74231666D01*
X157881190Y-74612619D01*
X135834381Y-79160666D02*
X135358190Y-79494000D01*
X135834381Y-79732095D02*
X134834381Y-79732095D01*
X134834381Y-79351142D01*
X134882000Y-79255904D01*
X134929619Y-79208285D01*
X135024857Y-79160666D01*
X135167714Y-79160666D01*
X135262952Y-79208285D01*
X135310571Y-79255904D01*
X135358190Y-79351142D01*
X135358190Y-79732095D01*
X134834381Y-78255904D02*
X134834381Y-78732095D01*
X135310571Y-78779714D01*
X135262952Y-78732095D01*
X135215333Y-78636857D01*
X135215333Y-78398761D01*
X135262952Y-78303523D01*
X135310571Y-78255904D01*
X135405810Y-78208285D01*
X135643905Y-78208285D01*
X135739143Y-78255904D01*
X135786762Y-78303523D01*
X135834381Y-78398761D01*
X135834381Y-78636857D01*
X135786762Y-78732095D01*
X135739143Y-78779714D01*
X129782667Y-108576762D02*
X129925524Y-108624381D01*
X130163620Y-108624381D01*
X130258858Y-108576762D01*
X130306477Y-108529143D01*
X130354096Y-108433905D01*
X130354096Y-108338667D01*
X130306477Y-108243429D01*
X130258858Y-108195810D01*
X130163620Y-108148190D01*
X129973143Y-108100571D01*
X129877905Y-108052952D01*
X129830286Y-108005333D01*
X129782667Y-107910095D01*
X129782667Y-107814857D01*
X129830286Y-107719619D01*
X129877905Y-107672000D01*
X129973143Y-107624381D01*
X130211239Y-107624381D01*
X130354096Y-107672000D01*
X130687429Y-107624381D02*
X130925524Y-108624381D01*
X131116001Y-107910095D01*
X131306477Y-108624381D01*
X131544572Y-107624381D01*
X132449334Y-108624381D02*
X131877905Y-108624381D01*
X132163619Y-108624381D02*
X132163619Y-107624381D01*
X132068381Y-107767238D01*
X131973143Y-107862476D01*
X131877905Y-107910095D01*
M02*
