M48
;DRILL file {KiCad 4.0.6} date 07/01/17 22:44:12
;FORMAT={2:4/ absolute / inch / suppress leading zeros}
FMAT,2
INCH,TZ
T1C0.013
T2C0.031
T3C0.035
T4C0.039
T5C0.043
%
G90
G05
M72
T1
X53400Y-42800
X53700Y-42500
T2
X50000Y-36000
X50000Y-39000
X51000Y-35000
X51000Y-38000
X52800Y-43600
X52800Y-44584
X54200Y-30400
X54200Y-33400
X55000Y-43000
X55000Y-44000
X55000Y-45000
X55000Y-46000
X56000Y-42000
X56984Y-42000
X58000Y-43000
X58000Y-44000
X58000Y-45000
X58000Y-46000
X66500Y-35000
X66500Y-38000
X67500Y-35750
X67500Y-38750
T3
X52782Y-35874
X53782Y-35874
X54300Y-39746
X55300Y-39746
X56632Y-32882
X57632Y-32882
X61270Y-32186
X62270Y-32186
T4
X56250Y-29750
X57250Y-29750
X58250Y-29750
X58906Y-40870
X58906Y-42091
X59250Y-29750
X60250Y-29750
X61250Y-29750
X67094Y-40870
X67094Y-42091
T5
X50341Y-40028
X50341Y-41800
X52900Y-40028
X52900Y-41800
T0
M30
