G04 #@! TF.FileFunction,Legend,Bot*
%FSLAX46Y46*%
G04 Gerber Fmt 4.6, Leading zero omitted, Abs format (unit mm)*
G04 Created by KiCad (PCBNEW 4.0.7) date 12/15/17 11:54:43*
%MOMM*%
%LPD*%
G01*
G04 APERTURE LIST*
%ADD10C,0.100000*%
%ADD11C,0.150000*%
G04 APERTURE END LIST*
D10*
X171520000Y-105410000D02*
G75*
G03X171520000Y-105410000I-11500000J0D01*
G01*
D11*
X160805714Y-95178571D02*
X160662857Y-95226190D01*
X160615238Y-95273810D01*
X160567619Y-95369048D01*
X160567619Y-95511905D01*
X160615238Y-95607143D01*
X160662857Y-95654762D01*
X160758095Y-95702381D01*
X161139048Y-95702381D01*
X161139048Y-94702381D01*
X160805714Y-94702381D01*
X160710476Y-94750000D01*
X160662857Y-94797619D01*
X160615238Y-94892857D01*
X160615238Y-94988095D01*
X160662857Y-95083333D01*
X160710476Y-95130952D01*
X160805714Y-95178571D01*
X161139048Y-95178571D01*
X160281905Y-94702381D02*
X159710476Y-94702381D01*
X159996191Y-95702381D02*
X159996191Y-94702381D01*
X158853333Y-95702381D02*
X159424762Y-95702381D01*
X159139048Y-95702381D02*
X159139048Y-94702381D01*
X159234286Y-94845238D01*
X159329524Y-94940476D01*
X159424762Y-94988095D01*
X162115238Y-115927143D02*
X162162857Y-115974762D01*
X162305714Y-116022381D01*
X162400952Y-116022381D01*
X162543810Y-115974762D01*
X162639048Y-115879524D01*
X162686667Y-115784286D01*
X162734286Y-115593810D01*
X162734286Y-115450952D01*
X162686667Y-115260476D01*
X162639048Y-115165238D01*
X162543810Y-115070000D01*
X162400952Y-115022381D01*
X162305714Y-115022381D01*
X162162857Y-115070000D01*
X162115238Y-115117619D01*
X161115238Y-116022381D02*
X161448572Y-115546190D01*
X161686667Y-116022381D02*
X161686667Y-115022381D01*
X161305714Y-115022381D01*
X161210476Y-115070000D01*
X161162857Y-115117619D01*
X161115238Y-115212857D01*
X161115238Y-115355714D01*
X161162857Y-115450952D01*
X161210476Y-115498571D01*
X161305714Y-115546190D01*
X161686667Y-115546190D01*
X160734286Y-115117619D02*
X160686667Y-115070000D01*
X160591429Y-115022381D01*
X160353333Y-115022381D01*
X160258095Y-115070000D01*
X160210476Y-115117619D01*
X160162857Y-115212857D01*
X160162857Y-115308095D01*
X160210476Y-115450952D01*
X160781905Y-116022381D01*
X160162857Y-116022381D01*
X159543810Y-115022381D02*
X159448571Y-115022381D01*
X159353333Y-115070000D01*
X159305714Y-115117619D01*
X159258095Y-115212857D01*
X159210476Y-115403333D01*
X159210476Y-115641429D01*
X159258095Y-115831905D01*
X159305714Y-115927143D01*
X159353333Y-115974762D01*
X159448571Y-116022381D01*
X159543810Y-116022381D01*
X159639048Y-115974762D01*
X159686667Y-115927143D01*
X159734286Y-115831905D01*
X159781905Y-115641429D01*
X159781905Y-115403333D01*
X159734286Y-115212857D01*
X159686667Y-115117619D01*
X159639048Y-115070000D01*
X159543810Y-115022381D01*
X158877143Y-115022381D02*
X158258095Y-115022381D01*
X158591429Y-115403333D01*
X158448571Y-115403333D01*
X158353333Y-115450952D01*
X158305714Y-115498571D01*
X158258095Y-115593810D01*
X158258095Y-115831905D01*
X158305714Y-115927143D01*
X158353333Y-115974762D01*
X158448571Y-116022381D01*
X158734286Y-116022381D01*
X158829524Y-115974762D01*
X158877143Y-115927143D01*
X157877143Y-115117619D02*
X157829524Y-115070000D01*
X157734286Y-115022381D01*
X157496190Y-115022381D01*
X157400952Y-115070000D01*
X157353333Y-115117619D01*
X157305714Y-115212857D01*
X157305714Y-115308095D01*
X157353333Y-115450952D01*
X157924762Y-116022381D01*
X157305714Y-116022381D01*
M02*
